<svg xmlns="http://www.w3.org/2000/svg" width="101" height="94.599" viewBox="0 0 101 94.599"><defs><style>.a{fill:none;}.b,.e{fill:#188c7c;}.c{fill:#0d5263;}.c,.e,.f,.h{fill-rule:evenodd;}.d{fill:#fff;}.f{fill:#ff8200;}.g{fill:#b51c48;}.h{fill:#ff5c13;}</style></defs><rect class="a" width="101" height="93.981"/><g transform="translate(4.051 5.907)"><circle class="b" cx="28.995" cy="28.995" r="28.995" transform="translate(17.003)"/><path class="c" d="M1062.205,806.419a29,29,0,1,1-15.492,25.661,28.97,28.97,0,0,1,15.492-25.661Z" transform="translate(-1029.71 -803.085)"/><circle class="d" cx="16.093" cy="16.093" r="16.093" transform="translate(29.744 11.63)"/><path class="e" d="M1095.936,902.869a4.972,4.972,0,0,0-4.972-4.972h-58.37a4.972,4.972,0,0,0-4.972,4.972v37.893a4.972,4.972,0,0,0,4.972,4.972h58.37a4.972,4.972,0,0,0,4.972-4.972V902.869Z" transform="translate(-1016.14 -868.902)"/><path class="f" d="M1034.38,958.337s-4-7.433-19.949-16.416-14.141-26.642-14.141-26.642-24.575,24.425-1.34,44.084C1013.337,971.537,1038.071,975.677,1034.38,958.337Z" transform="translate(-988.659 -881.257)"/><path class="f" d="M1078.008,965.617c19.162-4.054-13.619-41.3-16.527-51.3,0,0-6.419,17.58-.852,28.958,4.761,9.731,10.733,23.752,17.379,22.347Z" transform="translate(-1037.988 -880.57)"/><path class="c" d="M1148.7,945.469a4.88,4.88,0,0,0-4.881-4.88h0a4.88,4.88,0,0,0-4.88,4.88v12.066a4.88,4.88,0,0,0,4.88,4.881h0a4.881,4.881,0,0,0,4.881-4.881Z" transform="translate(-1095.264 -899.247)"/><circle class="g" cx="13.851" cy="13.851" r="13.851" transform="translate(65.196 37.797)"/><circle class="d" cx="4.153" cy="4.153" r="4.153" transform="translate(79.801 47.495)"/><rect class="g" width="31.585" height="10.858" transform="translate(43.666 46.22)"/><path class="h" d="M992.32,949.141s.905,19.873,18.595,27.247,17.073,22.452,1.016,14.913S979.983,970.868,992.32,949.141Z" transform="translate(-987.922 -905.326)"/></g></svg>