<svg xmlns="http://www.w3.org/2000/svg" width="107.98" height="93.982" viewBox="0 0 107.98 93.982"><defs><style>.a{fill:none;}.b,.h{fill:#e64460;}.c{fill:#b51c48;}.c,.d,.e,.g,.h,.i{fill-rule:evenodd;}.d{fill:#ff5c13;}.e{fill:#ff8200;}.f{fill:#fff;}.g{fill:#cf2e21;}.i{fill:#0d5263;}</style></defs><path class="a" d="M0,0H101V93.981H0Z"/><g transform="translate(0 10.358)"><circle class="b" cx="36.724" cy="36.724" r="36.724" transform="translate(7.219 2.574)"/><path class="c" d="M770.89,474.338a36.726,36.726,0,1,1-19.622,32.5,36.682,36.682,0,0,1,19.622-32.5Z" transform="translate(-744.049 -467.542)"/><path class="d" d="M1027.737,506.967c7.048,10.082,8.438,15.789,17.188,15.981,0,0-8.264,6.676-20.36-4.88S1025.42,503.652,1027.737,506.967Z" transform="translate(-936.944 -491.099)"/><path class="e" d="M1002.9,523.983c7.049,10.082,8.438,15.789,17.187,15.981,0,0-8.264,6.677-20.36-4.88S1000.579,520.668,1002.9,523.983Z" transform="translate(-919.079 -503.337)"/><circle class="f" cx="24.649" cy="24.649" r="24.649" transform="translate(19.294 14.649)"/><path class="d" d="M765.652,592.066c30.106,20.7,42.269-3.679,57.989-.567,11.3,2.237,29.531,24.168,29.531,24.168s5.124-28.573-16.1-37.728c-8.4-3.623-10.435-3.295-35.488,17.152-9.955,8.125-36.1-3.137-35.932-3.025Z" transform="translate(-754.393 -541.804)"/><path class="g" d="M980.962,455.288c-5.987-4.25-15.323,1.355-19.743,4.8-6.5,5.064-8.84,8.323-4.063,12.245,8.078,6.632,38.82-6.386,23.805-17.044Z" transform="translate(-890.306 -453.761)"/><path class="e" d="M816.858,500.085c.846-2.027-9.295.761-14.784,4.575-9.276,6.444-17.924,18.855-25.706,24.691-20.329,15.249-50.81,3.493-50.81,3.493s26.742,21.341,48.708,8.589c20.3-11.783,27.473-15.938,35.756-14.473,4.914.869,10.223,6.33,10.223,6.33a33.034,33.034,0,0,1-6.114-17.437,36.024,36.024,0,0,1,2.727-15.769Z" transform="translate(-725.558 -486.588)"/><path class="e" d="M1031.233,474.9c1.459-4.238,3.818-2.918,5.033-3.783s2.239-4.775.2-9.377-8.764-6.541-6.215-2.782c3.324,4.9-2.726,5.181-2.726,5.181s-3.119.5-.363,2.49C1030.745,469.226,1030.5,477.022,1031.233,474.9Z" transform="translate(-941.653 -456.072)"/><path class="h" d="M870.7,463.065q1.575-.136,3.188-.137a36.728,36.728,0,0,1,10.158,72.023l-.109.031-.232.065-.144.04-.177.048-.1.028a36.523,36.523,0,0,1-5.869,1.047l-.237.022-.235.02-.235.018-.11.008-.174.012-.181.012-.12.007-.237.013-.106.006-.168.008-.2.009-.112,0-.18.007-.166.005-.161,0-.077,0-.169,0-.2,0h-.458q-1.611,0-3.188-.137V524.1a24.648,24.648,0,1,0,0-48.888V463.065Z" transform="translate(-829.947 -460.354)"/><path class="c" d="M779.3,484.129a36.733,36.733,0,1,1,28.852,59.436,36.534,36.534,0,0,1-17.431-4.4,29.721,29.721,0,0,0,6.308-10.328,24.652,24.652,0,1,0-6.445-39.279,16.989,16.989,0,0,0-11.283-5.43Z" transform="translate(-764.211 -467.542)"/><path class="i" d="M868.878,531.38s-5.3,11.127-5.3,15.9a5.3,5.3,0,1,0,10.6,0C874.177,542.507,868.878,531.38,868.878,531.38Z" transform="translate(-824.824 -509.585)"/><path class="i" d="M826.205,573.514s10.542,6.383,15.286,6.86a5.3,5.3,0,0,0,1.059-10.544c-4.745-.477-16.345,3.684-16.345,3.684Z" transform="translate(-797.944 -537.211)"/><path class="d" d="M923.978,591.345c3.167-8.07-1.087-11.651-1.087-11.651a55.037,55.037,0,0,0,4.754-4.777s6.921,4.33,5.064,12.1C932.709,587.013,923.377,592.879,923.978,591.345Z" transform="translate(-867.481 -540.897)"/></g></svg>