<svg xmlns="http://www.w3.org/2000/svg" width="101" height="93.982" viewBox="0 0 101 93.982"><defs><style>.a{fill:none;}.b{fill:#ff8200;}.b,.c,.d,.e,.f,.g,.h{fill-rule:evenodd;}.c{fill:#188c7c;}.d{fill:#ff5c13;}.e{fill:#e64460;}.f{fill:#751c48;}.g{fill:#b51c48;}.h{fill:#cf2e21;}</style></defs><path class="a" d="M0,0H101V93.981H0Z"/><g transform="translate(10.446 0)"><path class="b" d="M401.792,468.41l10.928,5.6L376.653,537.67l-5.464-2.8,30.6-66.46Z" transform="translate(-367.598 -457.484)"/><path class="c" d="M364.188,697.618l5.035,2.58-8.651,14.028a1.531,1.531,0,0,1-2,.559h0a1.531,1.531,0,0,1-.715-1.95l6.333-15.216Z" transform="translate(-357.738 -625.502)"/><path class="c" d="M619.1,697.618l-5.035,2.58,8.651,14.028a1.531,1.531,0,0,0,2,.559h0a1.531,1.531,0,0,0,.715-1.95L619.1,697.618Z" transform="translate(-545.632 -625.502)"/><path class="b" d="M504.893,475.119l-10.933,5.589,34.206,60.165,5.467-2.795-28.74-62.959Z" transform="translate(-457.593 -462.402)"/><path class="d" d="M405.936,526.869c.635-1.785-2.275-.609-1.028-3.822,4.632-11.925,16.473-30.948,18.552-42.3.56-3.057.412-5.557-.773-7.215l3.9-8.751,3.653,19.052-24.307,43.041Z" transform="translate(-392.085 -454.821)"/><path class="d" d="M546.65,530.077c.139-1.89-14.865-30.246-18.947-38.56-4.286-8.73-5.814,3.761-5.814,3.761l-3.187-5.258,3.945-18.5,25.091,54.587-1.089,3.969Z" transform="translate(-475.73 -459.765)"/><path class="e" d="M401.635,634.742c-5.393-4.222-30.978-5.472-32.095-17.286-.083-.877,7.061-15.869,7.061-15.869s-23.357,10.2-16.077,27.519c3.557,8.463,15.832,19.393,38.655,19.983" transform="translate(-358.749 -555.108)"/><path class="e" d="M498.543,634.742c5.393-4.222,30.978-5.472,32.095-17.286.083-.877-7.061-15.869-7.061-15.869s23.357,10.2,16.077,27.519C536.1,637.569,523.822,648.5,501,649.089" transform="translate(-460.953 -555.108)"/><path class="f" d="M464.909,682.175c-5.109-6.953-15.812-4.953-15.444-12.735s5.623-15.657,14.97-15.736a16.033,16.033,0,0,1,16.42,16.269c-.021,9.11-11.255,6.662-14.056,9.987s-1.139,3.236-1.89,2.215Z" transform="translate(-424.971 -593.311)"/><path class="g" d="M473.3,684.753a7.15,7.15,0,0,0,4.433-1.574,5.341,5.341,0,0,0,1.8-3.2s3.1,2.048,3.044,7.848c0,0,3.455-.857,3.04,3.478-.165,1.723-1.767,2.667-4.078,6.681a9.532,9.532,0,0,1-16.487,0c-2.311-4.014-3.913-4.959-4.078-6.681-.415-4.335,3.04-3.478,3.04-3.478-.058-5.8,3.045-7.848,3.045-7.848s.454,4.468,6.236,4.776Z" transform="translate(-433.389 -612.57)"/><path class="h" d="M502.6,431.08a3.6,3.6,0,0,0-3.6-3.6h0a3.6,3.6,0,0,0-3.6,3.6v5.791a3.6,3.6,0,0,0,3.6,3.6h0a3.6,3.6,0,0,0,3.6-3.6Z" transform="translate(-458.659 -427.485)"/><path class="h" d="M481.231,495.93s9.863-20.712,9.863-29.588a9.863,9.863,0,0,0-19.725,0C471.369,475.219,481.231,495.93,481.231,495.93Z" transform="translate(-441.033 -448.739)"/></g></svg>