<svg xmlns="http://www.w3.org/2000/svg" width="101" height="93.982" viewBox="0 0 101 93.982"><defs><style>.a{fill:none;}.b{fill:#b51c48;}.b,.c,.e,.f,.g,.h{fill-rule:evenodd;}.c{fill:#e64460;}.d{fill:#fff;}.e{fill:#0d5263;}.f{fill:#ff8200;}.g{fill:#ff5c13;}.h{fill:#188c7c;}</style></defs><rect class="a" width="101" height="93.981"/><g transform="translate(14.786 0)"><path class="b" d="M351.313,214.226l-19.2,21.823a4.653,4.653,0,0,0,.42,6.568h0a4.653,4.653,0,0,0,6.568-.42l19.2-21.823Z" transform="translate(-330.954 -167.227)"/><path class="c" d="M389.668,148.091s29.065-38.331,28.944-64.875a29.24,29.24,0,0,0-58.479.267c.121,26.544,29.535,64.608,29.535,64.608Z" transform="translate(-351.568 -54.11)"/><path class="b" d="M361.042,98.044c4.994-7.682,14.365-12.859,25.092-12.859,15.963,0,27.4,12.308,27.4,26.429s-11.434,24.74-27.4,24.74a30.813,30.813,0,0,1-20.531-7.571c-3.214-7.97-5.437-16.089-5.47-23.346a29.246,29.246,0,0,1,.909-7.392Z" transform="translate(-351.568 -76.063)"/><path class="b" d="M382.254,241.673c.1-.109.161-.167.161-.167l13.042,4.717,2.519,8.613s-2.09.058-10.9-3.082c-1.7-3.257-3.343-6.645-4.819-10.081Z" transform="translate(-367.196 -186.499)"/><circle class="d" cx="19.534" cy="19.534" r="19.534" transform="translate(18.618 9.777)"/><path class="e" d="M431.434,132.354c8-11.359-6.212-30.124-5.555-33.614s5.651-9.6,14.846-6.622c4.2,1.36,14.4,7.679,11.907,10.742-2.849,3.5-5,11.92-4.5,14.994.828,5.064-6.4,41.726-6.4,41.726s-2.724.194-15.078-3.306C409.436,151.4,428.4,136.666,431.434,132.354Z" transform="translate(-393.522 -80.401)"/><path class="f" d="M387.3,218.609c7.165-11.584,15.983-28.158,18.382-42.777a16.184,16.184,0,0,0-6.594-1.043c-11.078.547-20.446,6.8-24.067,7.518-41.754,8.252-31.079,22.185-31.079,22.185s7.393-11.531,19.616-5.892c20.016,9.235,18.139,15.437,23.742,20.009Z" transform="translate(-339.27 -139.352)"/><path class="f" d="M443.27,110.083c-6.2-2.768-6.36,10.627-2.945,16.611,5.816,10.194,13.6,2.352,16.393-1.872,3.221-4.863.823-11.254-3.328-8.883C449.4,118.216,448.367,112.358,443.27,110.083Z" transform="translate(-406.647 -93.39)"/><path class="f" d="M473.685,153.665s2.746,1.742.634,8.623,4.641,13.922,10.676,4.79-3.972-15.868-3.629-20.282-7.681,6.869-7.681,6.869Z" transform="translate(-431.789 -118.866)"/><path class="g" d="M401.885,271.72c2.637-4.187,5.563-9.13,8.344-14.455-17.348-3.53-38.477-15.074-45.465-6.4,0,0,5.05-2.9,14.224.639C393.552,257.123,399.608,265.051,401.885,271.72Z" transform="translate(-354.84 -190.877)"/><path class="h" d="M478.869,171.206c.3,4.391-11.882,28.216-17.324,16.931s-6.518-12.6,1.986-12.611c4.926-.008,6.6-2.694,9.97-4.282,2.158-1.017,5.128-3.5,5.368-.038Z" transform="translate(-420.215 -135.577)"/><path class="h" d="M514.9,120.6s-2.076-13.17,8.692-17.238,11.591-4.033,11.591-4.033-.009,10.847-5.48,15.25-10.894,4.786-13.355,8.339S514.9,120.6,514.9,120.6Z" transform="translate(-460.761 -86.053)"/><path class="h" d="M519.547,155.823s9.956-8.867,19.2-2.008,9.659,7.571,9.659,7.571-9.129,5.857-15.792,3.635-9.916-6.577-14.235-6.726S519.547,155.823,519.547,155.823Z" transform="translate(-462.193 -122.71)"/></g></svg>