<svg xmlns="http://www.w3.org/2000/svg" width="101" height="93.982" viewBox="0 0 101 93.982"><defs><style>.a{fill:none;}.b{fill:#b51c48;}.b,.c,.e,.f,.g,.h,.i,.j{fill-rule:evenodd;}.c{fill:#751c48;}.d{fill:rgba(0,0,0,0);stroke:#2a618d;stroke-linecap:round;stroke-linejoin:round;stroke-width:12.09px;}.e{fill:#ff8200;}.f{fill:#ff5c13;}.g{fill:#188c7c;}.h{fill:#0d5263;}.i{fill:#e64460;}.j{fill:#cf2e21;}</style></defs><rect class="a" width="101" height="93.981"/><g transform="translate(3.636 0.466)"><path class="b" d="M1178.863,152.213c-9.212-8.134-32.483-32.007-23.24-44.215,9.952-13.146,9.922-26.259,46.338-9.7,9.179,4.173,3.669,4.5-11.8,7.1-7.748,1.306-19.882,14.027-21.917,19.292s-.415,7.188,4.153,14.333,15.68,21.324,6.468,13.19Z" transform="translate(-1148.698 -83.079)"/><path class="c" d="M1155.227,139.712s24.151-21.313,27.409-25.319c3.187-3.919-22.319.8-19.818,2.945l-10.849-5.7a95.214,95.214,0,0,0-10.254,17.453c-14.993,32.386,33.113,47.781,33.113,47.781Z" transform="translate(-1138.819 -97.292)"/><path class="d" d="M1252.738,161.255a13.062,13.062,0,0,0,0-18.473l-14.412-14.412a13.062,13.062,0,0,0-18.473,0l-14.412,14.412a13.062,13.062,0,0,0,0,18.473l14.412,14.412a13.062,13.062,0,0,0,18.473,0l14.412-14.412Z" transform="translate(-1181.095 -105.978)"/><path class="e" d="M1192.12,213.594c3.171,10.331,10,29,30.059,37.756,5.1,2.227,30.216,6.127,40.5-12.214,5.347-9.54,5.734-39.891-.911-33.574s-29.246,35.592-42.253,28.127c-7.1-4.075-27.527-20.539-27.391-20.095Z" transform="translate(-1174.703 -159.945)"/><path class="f" d="M1210.623,244.317c7.812,5.405,26.084,25.317,26.084,25.317s-23.856,2.466-37.532-21.673c-8.366-14.767-8-19.128-8-19.128s11.64,10.079,19.451,15.484Z" transform="translate(-1174.063 -176.189)"/><path class="g" d="M1313.374,158.934s18.195-7.3,19.939-22.124-4.118-7.116-14.624-13.282c-9.584-5.625-20.126-18.063-27.232-14.323,0,0,4.666.823,14.21,10.938,13.788,14.612,16.486,18.793,14.768,22.6s-5.365,12.375-5.365,12.375l-1.7,3.812Z" transform="translate(-1241.58 -95.187)"/><path class="g" d="M1366.122,105.049s-6.309,6.926-4,13.774c2.86,8.484,12.253,4.467,17.164-1.679C1382.7,112.865,1373.385,98.843,1366.122,105.049Z" transform="translate(-1288.811 -91.803)"/><path class="h" d="M1386.244,134.929c.015,4.166,11.186-23.685,5.125-32.516-3.749-5.463-16.043-5.035-19.07.07-1.844,3.109,5.356,7.182,10.763,7.84,2.554.311,2.9,2.425,1.522,3.869-.957,1-3.448,1.489-3.67,1.629C1374.326,119.977,1386.211,125.583,1386.244,134.929Z" transform="translate(-1295.807 -88.433)"/><path class="f" d="M1329.678,265.311c-2.005,2.577,8.777,3.155,13.166-.711,4.836-4.259.383-6.87,1.814-8.153,5.359-4.805-2.678-10.888-12.142-8.432s-6.29,10.568-6.29,10.568S1332.414,261.8,1329.678,265.311Z" transform="translate(-1264.643 -188.724)"/><path class="e" d="M1328.479,208.688c-1.127-3.78-22.329,19.162-8.8,24.185,0,0,1.323-2.536,6.551-3.388s10.087-7.039,4.077-8.214S1330.2,214.448,1328.479,208.688Z" transform="translate(-1257.552 -162.345)"/><path class="c" d="M1168.2,85.267a10.906,10.906,0,0,1,3.964-16.678c6.854-3.359,19.01,3.756,14.163,10.195-4.022,5.341-10.488,5.151-15.357,9.233S1171.29,88.975,1168.2,85.267Z" transform="translate(-1156.996 -67.728)"/><path class="i" d="M1173.949,100.6s-4.5-3.944-1.7-6.841c2.328-2.409,3.995,3.342,4.49,5.348a.287.287,0,0,0,.52.088c3.815-5.979,5.748-10.741,10.879-5.837,2.846,2.72,1.508,13.817-5.056,16.523-1.484.611-4.672-.961-6.165-1.065-2.563-.179-4.941,2.53-4.888,2.245.446-2.406,2.071-9.938,1.917-10.461Z" transform="translate(-1160.709 -83.611)"/><path class="b" d="M1162.117,165.3c-4-7.283-17.569,3.2-12.447,15.526s23.681,27.506,23.681,27.506-8.256-13.552-10.681-24.255c-1.849-8.162,2.623-12.99-.553-18.777Z" transform="translate(-1145.357 -131.801)"/><path class="j" d="M1337.667,201.085c-2.056-.905-12.994-5.1-19.4,1.2-2.08,2.047-5.481,10.655-6.022,14.558-.771,5.567,7.462,9.645,12.655,11.465,5.7,2,12.358.293,17-7.632C1345.133,215.17,1346.557,205,1337.667,201.085Z" transform="translate(-1255.542 -156.022)"/></g></svg>