<svg xmlns="http://www.w3.org/2000/svg" width="101" height="93.982" viewBox="0 0 101 93.982"><defs><style>.a{fill:none;}.b{fill:#188c7c;}.b,.c,.d,.e,.f,.g{fill-rule:evenodd;}.c{fill:#0d5263;}.d{fill:#e64460;}.e{fill:#751c48;}.f{fill:#ff8200;}.g{fill:#ff5c13;}</style></defs><path class="a" d="M0,0H101V93.981H0Z"/><g transform="translate(17.308)"><path class="b" d="M775.914,232.516s-7.417-16.693,1.8-26.335c8.177-8.552,25.4-9.686,40.25-20.819a135.044,135.044,0,0,1,11.919-8.527c8.654-5.248,18.127-3.792,19.162-3.3,1.123.537-11.588,4.115-9.551,4.45,4.207.692,14.725,7.15,11.892,6.556a61.375,61.375,0,0,0-12.461-1.4c-6.914-.056-6.713,4.512-9.057,5.911-1.945,1.16,1.73,5.587.255,6.384a170.5,170.5,0,0,0-14.682,9.127c-8.9,6.266-14.882,15.613-22.758,18.283S775.914,232.516,775.914,232.516Z" transform="translate(-772.479 -140.092)"/><path class="c" d="M791.674,287.173s-14.054-15.258-3.481-23.8c1.8-1.451,6.022-4.729,7.753-4.251,6.656,1.838,9.826,17.8,9.826,17.8s-12.34,8.735-14.1,10.25Z" transform="translate(-780.173 -199.448)"/><path class="c" d="M911.417,173.12c3.961-3.464-2.958-8.51-1.923-12.783,0,0,1.488-3.108,7.034,1.073,3.482,2.626,2.407,3.917,4.793,7.852s5.455.417,11.143,4.578,5.273,5.6,5.273,5.6a16.443,16.443,0,0,0-10.3-2.2,13.3,13.3,0,0,0-7.539,2.974c-.707.579,2.361,5.057.706,5.976-2.354,1.308-6.628,3.5-7.54,4.592-3.56,4.258-9.242-6.555-9.242-6.555s3.634-7.645,7.6-11.109Z" transform="translate(-862.603 -130.616)"/><path class="d" d="M797.487,94.569c2.586-3.259,3.234-5.72-.45-13.209a29.777,29.777,0,0,1-3.11-14.245A6.835,6.835,0,0,0,790.966,74c.6,4.888,3.335,9.982-.375,8.934s-10.311-8.948-19.328-6.675a10.113,10.113,0,0,1,4.658,1.408,31.7,31.7,0,0,1,9.648,9.65c3.7,6.117,9.333,10.508,11.918,7.249Z" transform="translate(-771.218 -67.115)"/><path class="e" d="M784.157,115.226c-.855-.564-2.435-3.543-3.409-3.826-4.074-1.183-7.869,1.68-7.869,1.68s6.6-.514,10.745,2.843S788.591,118.152,784.157,115.226Z" transform="translate(-772.332 -97.447)"/><path class="e" d="M790.926,126.174c-.931-.427-2.948-3.13-3.953-3.261-4.207-.548-7.52,2.861-7.52,2.861s6.445-1.515,11.053,1.17S795.753,128.389,790.926,126.174Z" transform="translate(-776.864 -105.54)"/><path class="e" d="M794.709,162.659c-10.561-4.405-17.32-18.354-15.147-32.036.424-2.672,3.047-2.9,3.977-5.233,5.617-14.113-7.051-29.466-12.422-28.916,0,0,3.688-2.1,12.288,4.886,5.487,4.454,6.622,10.336,10.4,11.3a8.975,8.975,0,0,0,5.153-.493,33.556,33.556,0,0,0-3.386,11.867c-.388,6.175.645,13.679,12.828,17.223,8.838,2.572,9.734,10.69,9.04,10.8,0,0-9.9,15.956-22.735,10.6Z" transform="translate(-771.117 -87.152)"/><path class="d" d="M783.116,274.245c12.779-8.473,29.768-23.828,37.93-38.012,0,0,17.823,2.882,8.9,20.821S770.337,282.718,783.116,274.245Z" transform="translate(-777.973 -183.703)"/><path class="f" d="M816.631,153.244s-6.639-4.39-3.156-17.267c3.09-11.421,21.516-20.814,29.233-37.694A135.116,135.116,0,0,1,849.1,85.094c5.089-8.748,14.1-12,15.251-12.061,1.243-.066-8.209,9.156-6.259,8.476,4.025-1.4,16.351-.764,13.579.07a61.375,61.375,0,0,0-11.614,4.728c-6.1,3.258-7.275,11.1-6.8,13.791.489,2.792,3.561,3.5,2.549,5.875a185.7,185.7,0,0,1-11.25,18.085c-6.8,8.5-8.4,9.8-14.037,15.915s-13.879,13.27-13.879,13.27Z" transform="translate(-799.621 -71.195)"/><path class="f" d="M908.935,99.3c1.822-4.937-1.591-14.713-2.726-18.961,0,0,4.039.372,5.242,3.44s.359,5.082,4.335,7.4,4.99-2.243,11.975-1.31,7.311,2.4,7.311,2.4a16.443,16.443,0,0,0-10.1,2.992c-5.128,3.511-5.8,7.333-6.89,12.776s-10.639-4.111-10.639-4.111-.332.315,1.489-4.622Z" transform="translate(-864.248 -76.232)"/><path class="g" d="M922.907,118.215s5.365-11.728,16.416-14.656c3.808-1.009,5.551-.384,5.551-.384a38.214,38.214,0,0,0-5.665,2.288s.473.222,1.119.557a16.91,16.91,0,0,1,3.234,2.031s-4.7.642-7.341,3-6.385,11.282-6.385,11.282-3.884-3.6-6.929-4.115Z" transform="translate(-875.76 -91.842)"/></g></svg>