<svg xmlns="http://www.w3.org/2000/svg" width="30" height="30" viewBox="0 0 30 30"><defs><style>.a{opacity:0.8;}.b{fill:#fff;}</style></defs><g class="a"><path class="b" d="M24.375,0H5.625A5.625,5.625,0,0,0,0,5.625v18.75A5.625,5.625,0,0,0,5.625,30h18.75A5.625,5.625,0,0,0,30,24.375V5.625A5.625,5.625,0,0,0,24.375,0Zm0,23.7a.678.678,0,0,1-.677.677H6.3a.678.678,0,0,1-.677-.677V6.3A.678.678,0,0,1,6.3,5.625H23.7a.678.678,0,0,1,.677.677ZM18.75,7.5H22.5v3.75H18.75ZM11.25,15A3.75,3.75,0,1,0,15,11.25,3.75,3.75,0,0,0,11.25,15Zm9.328,0A5.578,5.578,0,1,1,9.422,15a3.7,3.7,0,0,1,.126-.937H7.5V22.5h15V14.063H20.453A3.613,3.613,0,0,1,20.578,15Z"/></g></svg>