<svg xmlns="http://www.w3.org/2000/svg" width="400" height="111px" viewBox="0 0 513.697 190.123"><defs><style>.a{fill:#ff8200;stroke:rgba(0,0,0,0);stroke-miterlimit:10;}</style></defs><path class="a" d="M1321.687,295.791H810.558a265.3,265.3,0,0,1,.879-46.6,354.4,354.4,0,0,1,5.848-36.322,237.611,237.611,0,0,1,8.648-30.32A161.827,161.827,0,0,1,837.2,157.879a116.593,116.593,0,0,1,13.71-19.388,93.936,93.936,0,0,1,15.971-14.458,88.768,88.768,0,0,1,18.053-9.885,99.01,99.01,0,0,1,19.956-5.669,125.207,125.207,0,0,1,21.679-1.81,178.042,178.042,0,0,1,30.18,2.778,273.844,273.844,0,0,1,32.36,7.826c10.71,3.245,22.2,7.319,34.155,12.109,11.149,4.468,23.115,9.726,35.567,15.628,48.193,22.844,99.3,53.136,148.716,82.431,29.307,17.372,56.988,33.781,84.013,48.688a242.6,242.6,0,0,1,30.123,19.662l0,0h0Z" transform="translate(-809.431 -106.168)"/></svg>