<svg xmlns="http://www.w3.org/2000/svg" width="300" height="100" viewBox="0 0 355.052 138.619"><defs><style>.a{fill:#ff8200;stroke:rgba(0,0,0,0);stroke-miterlimit:10;}</style></defs><path class="a" d="M974.6,329.619h-.012a209.547,209.547,0,0,1-35.745-2.944,152.381,152.381,0,0,1-31.832-8.98,184.413,184.413,0,0,1-23.58-11.556,109.242,109.242,0,0,1-17.389-12.533,68.678,68.678,0,0,1-11.7-13.417,50.1,50.1,0,0,1-8.207-31.656,71.2,71.2,0,0,1,3.892-18.247,115.731,115.731,0,0,1,8.689-18.894A193.8,193.8,0,0,1,871.4,192h328.474c-6.275,20.855-17.591,40.428-33.631,58.174a200.109,200.109,0,0,1-25.512,23.568,240.1,240.1,0,0,1-29.7,19.663,275.359,275.359,0,0,1-32.672,15.589,294.633,294.633,0,0,1-34.437,11.345,289.792,289.792,0,0,1-34.993,6.931A259.877,259.877,0,0,1,974.6,329.619Z" transform="translate(-845.499 -191.5)"/></svg>