<svg xmlns="http://www.w3.org/2000/svg" width="80" height="80" viewBox="0 0 80 80"><defs><style>.a{fill:#fff;}</style></defs><path class="a" d="M65,0H15A15,15,0,0,0,0,15V65A15,15,0,0,0,15,80H65A15,15,0,0,0,80,65V15A15,15,0,0,0,65,0Zm0,63.195A1.807,1.807,0,0,1,63.195,65H16.805A1.807,1.807,0,0,1,15,63.195V16.805A1.807,1.807,0,0,1,16.805,15h46.39A1.807,1.807,0,0,1,65,16.805ZM50,20H60V30H50ZM30,40A10,10,0,1,0,40,30,10,10,0,0,0,30,40Zm24.875,0a14.875,14.875,0,1,1-29.75,0,9.853,9.853,0,0,1,.335-2.5H20V60H60V37.5H54.54A9.634,9.634,0,0,1,54.875,40Z"/></svg>