<svg xmlns="http://www.w3.org/2000/svg" xmlns:xlink="http://www.w3.org/1999/xlink" width="176" height="369" viewBox="0 0 176 369"><defs><style>.a{fill:#c94b32;}.b{fill:#ff8201;}.c{clip-path:url(#a);}.d{fill:#b51c48;}.e{fill:#0e4e5e;}.f{fill:#178677;}.g{fill:#f35914;}</style><clipPath id="a"><rect class="a" width="176" height="369" transform="translate(-3535 326)"/></clipPath></defs><g transform="translate(3535 -326)"><rect class="a" width="176" height="369" transform="translate(-3535 326)"/><g transform="translate(-3685.325 126.95)"><path class="b" d="M238.533,257.859a20.876,20.876,0,0,1,14.876,6.125l10.831,10.832,13.979,13.977a21.061,21.061,0,0,1,0,29.75l-13.043,13.042-11.767,11.767a21.124,21.124,0,0,1-29.75,0l-13.068-13.068-11.743-11.741a21.124,21.124,0,0,1,0-29.75l13.359-13.357,11.452-11.453a20.876,20.876,0,0,1,14.874-6.125m0-8.4a29.344,29.344,0,0,0-20.812,8.584L206.269,269.5,192.91,282.856a29.518,29.518,0,0,0,0,41.624l11.743,11.743,13.068,13.069a29.521,29.521,0,0,0,41.624,0l11.768-11.768,13.044-13.044a29.521,29.521,0,0,0,0-41.624l-13.979-13.979-10.833-10.832a29.342,29.342,0,0,0-20.812-8.584" transform="translate(0)"/><path class="b" d="M303.592,343.688a11.985,11.985,0,0,1,8.536,3.517l12.983,12.983a12.084,12.084,0,0,1,0,17.071l-12.983,12.983a12.117,12.117,0,0,1-17.071,0l-12.983-12.983a12.084,12.084,0,0,1,0-17.071L295.056,347.2a11.986,11.986,0,0,1,8.535-3.517m0-3.33a15.353,15.353,0,0,0-10.89,4.492l-12.983,12.983a15.449,15.449,0,0,0,0,21.782L292.7,392.6a15.449,15.449,0,0,0,21.782,0l12.982-12.982a15.45,15.45,0,0,0,0-21.782L314.483,344.85a15.354,15.354,0,0,0-10.892-4.492" transform="translate(-65.058 -65.055)"/><path class="b" d="M280.773,309.181h0a16.565,16.565,0,0,1,13.394,6.791l14.715,20.3A16.55,16.55,0,0,1,305.2,359.3l-20.3,14.714a16.3,16.3,0,0,1-9.63,3.115,16.566,16.566,0,0,1-13.394-6.79l-14.714-20.3a16.507,16.507,0,0,1,3.675-23.025l20.3-14.712a16.315,16.315,0,0,1,9.631-3.117m0-4.547a20.9,20.9,0,0,0-12.3,3.98l-20.3,14.715a21.1,21.1,0,0,0-4.689,29.376l14.715,20.3A21.09,21.09,0,0,0,287.57,377.7l20.3-14.715a21.1,21.1,0,0,0,4.689-29.376L297.85,313.3a21.048,21.048,0,0,0-17.078-8.669" transform="translate(-39.488 -39.487)"/><path class="b" d="M346.626,387.351h0c3.068,0,5.983,2,6.635,4.549l.015.053.015.051,2.936,9.872a6.054,6.054,0,0,1-4.374,7.309l-8.8,2.247a5.927,5.927,0,0,1-1.483.188,6.051,6.051,0,0,1-5.871-4.549l-.014-.053-.015-.051-2.937-9.872a6.073,6.073,0,0,1,4.374-7.309l.031-.008.032-.009,7.945-2.237a6.259,6.259,0,0,1,1.508-.18m0-2.749a8.944,8.944,0,0,0-2.217.273l-7.979,2.248a8.821,8.821,0,0,0-6.346,10.7l2.953,9.928a8.833,8.833,0,0,0,8.535,6.619,8.71,8.71,0,0,0,2.164-.273l8.8-2.247a8.823,8.823,0,0,0,6.346-10.7l-2.953-9.928c-1.013-3.964-5.2-6.618-9.3-6.618" transform="translate(-104.124 -96.721)"/></g><g class="c"><g transform="translate(-3436.447 525.729)"><path class="d" d="M-115.387-115.365c25.261-38.607,128.405-37.852,132.879-105.181,4.448-66.944-150.521-12.205-150.521-10.356S-115.387-115.365-115.387-115.365Z" transform="translate(0)"/><path class="e" d="M666.9,440.131c-52.15,13.693-59.029,55.856-20.268,89.883L685.4,564.041Z" transform="translate(-567.869 -521.919)"/><path class="f" d="M660.119-112.269s-53.5,7.784-59.547,53.259c-6.657,50.051,23.29,102.593,47.711,144.795s27.369,61.955,27.369,61.955Z" transform="translate(-551.103 -106.406)"/><path class="g" d="M-102.895,936.985c54,18.8,78.63,112.8,152.523,129.361S-110,1069.927-110,1069.927Z" transform="translate(-10.03 -877.651)"/></g></g></g></svg>