<svg xmlns="http://www.w3.org/2000/svg" width="1020.335" height="690.424" viewBox="0 0 1020.335 690.424"><defs><style>.a,.g{fill:#e64460;}.a,.b,.c,.e,.f,.h,.i,.j,.k,.l,.o{fill-rule:evenodd;}.b{fill:#b51c48;}.c,.n{fill:#0d5263;}.d,.f{fill:#2a5f89;}.e,.p{fill:#1a385c;}.h,.m{fill:#ff8200;}.i{fill:#fff;}.j{fill:#ff5c13;}.k,.q{fill:#1b2b41;}.l{fill:#188c7c;}.o{fill:#c94b32;}</style></defs><g transform="translate(-152.746 -18.095)"><g transform="translate(152.746 18.095)"><g transform="translate(0 233.035)"><path class="a" d="M378.8,323.215H155.935s-2.6,70.519,37.027,97.366L378.8,323.215Z" transform="translate(-155.9 -274.819)"/><path class="b" d="M378.8,295.978a15.787,15.787,0,0,0-15.786-15.786H171.724a15.787,15.787,0,0,0-15.786,15.786v23.9H378.8v-23.9Z" transform="translate(-155.903 -271.478)"/><path class="b" d="M210.208,287.256A16.512,16.512,0,0,0,193.7,270.745h0a16.512,16.512,0,0,0-16.512,16.511v15.616h33.024Z" transform="translate(-157.552 -270.745)"/><path class="b" d="M297,287.256a16.512,16.512,0,0,0-16.512-16.511h0a16.512,16.512,0,0,0-16.512,16.511v15.616H297Z" transform="translate(-164.29 -270.745)"/><path class="b" d="M374.562,287.256a16.512,16.512,0,0,0-16.511-16.511h0a16.512,16.512,0,0,0-16.512,16.511v15.616h33.024Z" transform="translate(-170.312 -270.745)"/><path class="a" d="M204.566,291.495a10.35,10.35,0,0,0-10.351-10.35h0a10.35,10.35,0,0,0-10.351,10.35v15.579h20.7Z" transform="translate(-158.071 -271.552)"/><path class="a" d="M291.354,291.495A10.349,10.349,0,0,0,281,281.145h0a10.349,10.349,0,0,0-10.351,10.35v15.579h20.7V291.495Z" transform="translate(-164.809 -271.552)"/><path class="a" d="M368.92,291.495a10.35,10.35,0,0,0-10.351-10.35h0a10.35,10.35,0,0,0-10.351,10.35v15.579h20.7V291.495Z" transform="translate(-170.831 -271.552)"/></g><path class="c" d="M783.549,175.078c9.246-22.619,88.962-42.3,103.754,12.176s62.971,77.5,62.971,77.5L822.33,351.947,769.289,270.4s5.015-72.706,14.26-95.325Z" transform="translate(-203.521 -28.506)"/><g transform="translate(99.487 174.311)"><rect class="d" width="338.714" height="168.27" transform="translate(0.001 75.856)"/><path class="e" d="M602.476,221.886H277.4a13.64,13.64,0,0,0-13.64,13.64v48.559H602.475v-62.2Z" transform="translate(-263.761 -208.228)"/><path class="e" d="M346.242,232.173a25.094,25.094,0,0,0-25.095-25.095h0a25.1,25.1,0,0,0-25.1,25.095v25.26h50.19Z" transform="translate(-266.268 -207.078)"/><path class="b" d="M478.147,232.173a25.1,25.1,0,0,0-25.1-25.095h0a25.094,25.094,0,0,0-25.095,25.095v25.26h50.19Z" transform="translate(-276.509 -207.078)"/><path class="b" d="M596.033,232.173a25.1,25.1,0,0,0-25.095-25.095h0a25.1,25.1,0,0,0-25.095,25.095v25.26h50.19Z" transform="translate(-285.661 -207.078)"/><path class="f" d="M337.666,239.11a15.73,15.73,0,0,0-15.731-15.731h0A15.731,15.731,0,0,0,306.2,239.11v24.908h31.462V239.11Z" transform="translate(-267.056 -208.344)"/><path class="a" d="M469.57,239.11a15.73,15.73,0,0,0-15.73-15.731h0a15.731,15.731,0,0,0-15.731,15.731v24.908H469.57V239.11Z" transform="translate(-277.297 -208.344)"/><path class="a" d="M587.458,239.11a15.73,15.73,0,0,0-15.731-15.731h0A15.731,15.731,0,0,0,556,239.11v24.908h31.462V239.11Z" transform="translate(-286.449 -208.344)"/></g><g transform="translate(230.131 86.665)"><rect class="g" width="338.714" height="168.27" transform="translate(0.001 75.858)"/><path class="b" d="M744.117,142.65a15.786,15.786,0,0,0-15.786-15.785H421.187A15.786,15.786,0,0,0,405.4,142.65v46.412H744.115V142.65Z" transform="translate(-405.401 -113.205)"/><path class="b" d="M487.883,137.151a25.1,25.1,0,0,0-25.1-25.1h0a25.094,25.094,0,0,0-25.095,25.1v25.26h50.19Z" transform="translate(-407.908 -112.055)"/><path class="b" d="M619.787,137.151a25.1,25.1,0,0,0-25.095-25.1h0a25.1,25.1,0,0,0-25.095,25.1v25.26h50.19Z" transform="translate(-418.149 -112.055)"/><path class="b" d="M737.674,137.151a25.1,25.1,0,0,0-25.095-25.1h0a25.1,25.1,0,0,0-25.095,25.1v25.26h50.19Z" transform="translate(-427.301 -112.055)"/><path class="a" d="M479.306,144.088a15.732,15.732,0,0,0-15.731-15.731h0a15.731,15.731,0,0,0-15.731,15.731V169h31.462Z" transform="translate(-408.696 -113.321)"/><path class="a" d="M611.211,144.088a15.733,15.733,0,0,0-15.731-15.731h0a15.73,15.73,0,0,0-15.73,15.731V169h31.462V144.088Z" transform="translate(-418.937 -113.321)"/><path class="a" d="M729.1,144.088a15.731,15.731,0,0,0-15.731-15.731h0a15.731,15.731,0,0,0-15.731,15.731V169H729.1V144.088Z" transform="translate(-428.089 -113.321)"/></g><path class="c" d="M354.619,559.817c33.91-25.12,135.2-107.087,121.113-174.706-18.637-89.462-257.387-97.465-297.233-1.9-15.819,37.938,47.125,37.165,92.265,123.614,27.065,51.835,83.477,53.275,83.856,52.993Z" transform="translate(-157.461 -41.125)"/><path class="h" d="M1089.911,48.917,1005.17,31.464,869.653,49.234a10.3,10.3,0,0,0-8.96,10.211v161.4h263.224L1089.911,48.917Z" transform="translate(-210.617 -19.133)"/><path class="h" d="M1084.057,46.769a21.465,21.465,0,0,0-18.023-19.134l-58.873-9.278a21.454,21.454,0,0,0-6.59-.014l-93.36,14.3A21.463,21.463,0,0,0,889,53.858V193.7h209.283s-10.2-105.392-14.223-146.933Z" transform="translate(-212.815 -18.095)"/><path class="i" d="M954.99,154.514a28.265,28.265,0,0,0-28.265-28.265h0a28.265,28.265,0,0,0-28.265,28.265v58.814h56.53Z" transform="translate(-213.55 -26.492)"/><path class="j" d="M933.51,213.327V127.068a28.312,28.312,0,0,0-6.784-.82h0a28.265,28.265,0,0,0-28.265,28.265v58.814Z" transform="translate(-213.55 -26.492)"/><path class="j" d="M1005.7,161.353l1.66-68.454s9.625-15.59,11.113-20.617-9.348-6.871-9.348-6.871l.643-20.42,86.783,11.62-.173,109.321Z" transform="translate(-221.875 -20.184)"/><path class="i" d="M1090.582,142.947a16.7,16.7,0,0,0-16.7-16.7h0a16.7,16.7,0,0,0-16.7,16.7v70.379h33.4Z" transform="translate(-225.872 -26.492)"/><path class="h" d="M943.728,77.665,859.31,87.116a7.766,7.766,0,0,0-6.5,10.192h0a21,21,0,0,0,18.116,14.231l20.3,1.734,52.5-12.492V77.665Z" transform="translate(-209.974 -22.72)"/><path class="k" d="M362.352,481.932c28.836-52.529,168.165-64.026,312.829-140.163,58.888-30.994,141.506-106.271,172.3-137.945,53.912-55.446,240.913-84.218,252.089-13.609,2.917,18.434-14.3,162.746-14.3,162.746s-52.069-115.408-34.29,98.725c6.885,82.92-4.716,106.96,48.987,156.928,10.688,9.945-91.1,105.7-456.549,55.226-205.444-28.376-321.648-107.993-281.073-181.9Z" transform="translate(-171.305 -28.216)"/><path class="i" d="M444.9,607.379c159.03,71.741,446.983-436.544,538.131-456.954s176.561,21.263,176.561,21.263S913.2,279.457,865.283,430.845,792.267,745.627,576.391,714.51C391.705,687.889,332.9,556.852,444.9,607.378Z" transform="translate(-173.929 -27.932)"/><path class="j" d="M924.839,389.641c57.767,0,104.666,15.593,104.666,34.8s-46.9,34.8-104.666,34.8-104.665-15.593-104.665-34.8c0-4.37-1.685-16.277,2.748-20.132,15.047-13.086,57.3-14.667,101.917-14.667Z" transform="translate(-207.447 -46.941)"/><path class="l" d="M708.292,529.081c-6.107-12.334-16.974-36.277-16.974-36.277L701.65,484.2s10.51,26.8,17.834,33.568,7.17,8.815,7.17,8.815S714.4,541.415,708.292,529.081Z" transform="translate(-197.468 -54.282)"/><circle class="m" cx="10.92" cy="10.92" r="10.92" transform="translate(707.798 224.787)"/><path class="b" d="M1037.827,704.352c-11.492,2.4-23.986,4.588-37.551,6.468V657.091h37.551Z" transform="translate(-221.454 -67.704)"/><path class="c" d="M956.418,294.137c-5.76,3.9-10.85,3.3-24.061,10.078s-37.858,53.3-53.616,63.841-24.473,26.581-16.557,36.857c0,0,10.113-10.245,29.218-21.077s30.115-14.739,46.846-14.057,92.516,26.064,92.516,26.064,18.058-125.63-16.218-121.928-52.367,16.322-58.127,20.222Z" transform="translate(-210.502 -37.95)"/><ellipse class="m" cx="104.665" cy="34.8" rx="104.665" ry="34.8" transform="translate(612.281 330.064)"/><path class="l" d="M605.691,422.3c24.849-31.771,233.7-151.789,220.736-212.616C809.162,128.7,654.536,129.8,634.941,217.608s-54.1,236.466-29.249,204.7Z" transform="translate(-190.147 -28.36)"/><path class="l" d="M708.616,532.134s3.54,5.678,6.74,6.737,1.556-2.925,11.474-5.123,17.9-18.579,10.378-14.438-25.067-1.719-29.067-1.348-1.4,10.191.475,14.172Z" transform="translate(-198.611 -56.902)"/><path class="f" d="M679.816,475.952s17.778,34.176,25.916,48.147l13.458-9.6s-15.347-32.986-17.673-52.806-26.219-14.227-21.7,14.26Z" transform="translate(-196.531 -51.623)"/><path class="l" d="M604.577,519.885s-2.386,6.252-1.3,9.441,3.272-.527,11.014,6.05,25.621,3.044,17.776-.45-13.772-21.015-16.484-23.98-8.969,5.038-11.008,8.939Z" transform="translate(-190.611 -56.308)"/><path class="c" d="M513.349,510.652c42.874-56.836,71.5-100.725,82.871-111.633C666.385,331.741,721.782,135.448,568,146.639c-83.968,6.11-95.215,54.176-111.637,89.468-57.711,124.028-12.4,366.531,56.988,274.544Z" transform="translate(-177.182 -28.039)"/><path class="l" d="M947.764,371.9c26.389,0,47.618,5.838,47.618,18.776s-21.424,23.442-47.813,23.442-47.814-10.5-47.814-23.442,21.62-18.776,48.008-18.776Z" transform="translate(-213.65 -45.563)"/><ellipse class="n" cx="40.091" cy="12.631" rx="40.091" ry="12.631" transform="translate(694.185 329.167)"/><path class="l" d="M438.836,612.591c34.139-39.456,136.115-168.2,121.933-274.408-18.764-140.517-171.615-134.636-211.73,15.461-15.926,59.589-11.133,143.952,13.669,189.493,26.3,48.29,75.747,69.895,76.129,69.454Z" transform="translate(-170.179 -35.074)"/><path class="c" d="M950.653,205.67c-10.937,4.765-31.427,10.724-28.067,27.729s22.129,40.738,41.968,40.587,18.306-9.938,23.04-27.622C998.273,206.472,976.844,194.26,950.653,205.67Z" transform="translate(-215.394 -32.341)"/><path class="b" d="M1061.423,208.759c-31.055,11.39-26.7,46.663-24.273,83.715,1.835,28.067-26.32,19.976-48.157,39.511-10.582,9.466-58.174,51.434-81.021,93.286-22.921,41.988-21.05,83.833-3.834,76.383l29.112-14.522,131.986,14.522s25.272-303.564-3.813-292.895Z" transform="translate(-212.97 -32.876)"/><path class="c" d="M1108.829,352.522c-66.04,8.583-88.435,48.73-92.334,101.146s-32.289,75.245-32.289,75.245,109.182,26.39,139.769-4.693,27.581-177.25-15.146-171.7Z" transform="translate(-220.207 -44.047)"/><path class="l" d="M934.425,226.67c-16.323,3.115-6.919,45.907,10.255,55.854,8.918,5.165,12.84-3.336,14.788,5.473,1.132,5.121-10.358,8.289-10.358,8.289s10.029,23.026,28.513,9.918,19.617-31.858,19.617-31.858-10.35,1.2-13.061-9.011-36.145-41.262-49.754-38.665Z" transform="translate(-215.685 -34.276)"/><path class="a" d="M1039.858,210.8c-19.241,9.365-11.24,32.936-20.351,48.149s-1.714,39.5,19.955,43.343c0,0,4.271,7.144-9.957,13.62,0,0,1.343-2.62,28.631-1.235a194.778,194.778,0,0,0,49.729-4s-28.367-9.459-15.084-31.352,28.695-108.245-52.923-68.521Z" transform="translate(-222.651 -32.256)"/><path class="b" d="M1033.01,211.044c-13.027,16.743-7.21,29.712,7.081,39.433,0,0,16.091-6.454,15.073,8.747s.931,13.342,7.171,22.143,33.652,9.829,33.652,9.829,25.683-38.213,25.542-65.635-58.87-52.623-88.518-14.516Z" transform="translate(-223.432 -31.569)"/><path class="f" d="M1173.044,133.654A106.237,106.237,0,0,0,1089.55,29.88l-4.5-.987V585.677h88V133.654Z" transform="translate(-228.035 -18.934)"/><path class="j" d="M1005.468,513.773c121.214,0,219.622,32.719,219.622,73.021s-98.409,73.021-219.622,73.021-219.622-32.72-219.622-73.021c0-9.171-3.535-34.155,5.766-42.245C823.183,517.089,911.839,513.773,1005.468,513.773Z" transform="translate(-204.755 -56.578)"/><ellipse class="m" cx="219.622" cy="73.021" rx="219.622" ry="73.021" transform="translate(580.156 430.68)"/><path class="h" d="M322.4,307.5c-5.42-21.161,9.713-17.231,32.048-20.53,9.166-1.354,13.912,8.431,20.153,16.479,4.373,5.639,8.521,8.228,8.89,14.94.387,7.051-1.575,14.483-7.266,18.823-3.414,2.6-10.462,2.753-7.833,13.533,2.177,8.919,21.192,10.279,30.174,23.518,11.764,17.338-47.246,71.682-23.965,104.856,41.493,59.123,62.285,139.8,62.285,139.8s-132.46-58.671-156.153-111.7C268.086,478.9,307.663,469.7,310.212,431.2c2.321-35.054-22.137-55.193,9.352-71.067,32.452-16.359,7.746-33.481,2.84-52.633Z" transform="translate(-165.399 -38.96)"/><path class="h" d="M415.095,455.163c-45.14,2.444-62.065-113.765-16.839-82.908C430.987,394.588,450.437,453.249,415.095,455.163Z" transform="translate(-172.649 -45.186)"/><path class="h" d="M302.026,385.038c-3.376,6.962-11.818,56.951-11.336,74.324s13.226,22.257,13.226,22.257,35.918-32.575,29.074-65.733-18.5-45.593-18.5-45.593-6.493,2.447-12.459,14.746Z" transform="translate(-166.363 -45.439)"/><path class="o" d="M372.241,326.465c.381,6-18.138,11.92-33.63,11.383-33.333-1.155-33.9-39.379-16.08-56.115,0,0-20.108-12.421,8.878-23.068,21.937-8.058,29.087,6.555,23.419,12.979,31.593,7.672,35.058,19.414,25.846,33.221C380.673,304.865,371.529,315.228,372.241,326.465Z" transform="translate(-167.931 -36.589)"/><path class="f" d="M688.547,282c8.527-8.542,19.861-9.626,24.237,0s5.415,31.874-4.388,32.615-12.02,3.1-11.12,7.506-4.051,8.376-4.051,8.376-5.343-9.34-11.015-11.264-7.034-1.779-7.034-1.779.734-2.544,5.794-9.928,1.717-19.657,7.576-25.526Z" transform="translate(-196.215 -38.054)"/><path class="k" d="M668.225,314.051s11-4.712,19.775,3.974,21.833,47.754,21.833,47.754,1.749,29.757-12.816,62.678-31.686,64.9-31.686,64.9-60.792-69.964-42.243-94.73C650.646,361.825,654.1,346.129,668.225,314.051Z" transform="translate(-191.897 -40.973)"/><path class="k" d="M685.277,305.76l10.617-3.02s-4.969-7.166,0-11,7.7,3.11,7.7,3.11S724,291.91,721.322,279.522c0,0-18.039-8.6-28.461-4.439s-9.106,18.224-9.834,25.36-3.777,9.946-3.777,9.946l6.028-4.628Z" transform="translate(-196.531 -37.959)"/><g transform="translate(789.958 373.538)"><path class="e" d="M1087.654,423.074c-28.866,0-51.214,4.4-51.214,31.3s23.436,48.753,52.3,48.753,52.3-21.846,52.3-48.753-24.524-31.3-53.391-31.3Z" transform="translate(-1014.219 -423.074)"/><rect class="p" width="13.286" height="77.655" transform="translate(67.881 51.951)"/><ellipse class="q" cx="43.855" cy="14.742" rx="43.855" ry="14.742" transform="translate(30.659 4.444)"/><path class="h" d="M1045.364,472.83c5.689,15.08,18.932,25.282,40.957,26.428,0,0-11.5-3.219-19.507-21.075-6.206-13.835-27.551-21.522-21.451-5.353Z" transform="translate(-1014.828 -426.232)"/><path class="f" d="M1112.03,472.038c-9.905-.535-15.284-8.164-3.61-9.026,15.115-1.118,30.612-9.617,30.508-8.633C1137.925,463.88,1123.249,472.644,1112.03,472.038Z" transform="translate(-1019.293 -425.498)"/><path class="j" d="M1064.02,582.713c-24.957-2.551-72.158-29.406-41.839-45.756,27.924-15.057,70.468-1.8,54.4,14s16.979,34.776-12.56,31.756Z" transform="translate(-1012.349 -431.402)"/><ellipse class="p" cx="41.405" cy="22.949" rx="41.405" ry="22.949" transform="translate(33.118 109.439)"/></g><path class="o" d="M304.165,398.36c3.4,3.485,14.091,12.015,39.365,15.191,32.1,4.035,45.634-12,45.634-12s-4.07,13.155-7.759,29.53c-9.989,19.443-18.117,40.571-6.8,56.7C416.1,546.9,436.89,570.493,436.89,570.493s-39.569,39.56-79.32,15.008c-32.981-20.369-66.088-45.576-76.832-69.622-12.651-28.317,26.926-37.521,29.474-76.018,1.119-16.9-3.988-30.338-6.047-41.5Z" transform="translate(-165.399 -47.618)"/><path class="j" d="M418.471,454.245s24.871,75.151-63.545,30.9c-34.409-17.223,24.8-121.5,24.8-121.5a45.63,45.63,0,0,1,15.522,7.288s-.955,42.467,3,55.729c8.756,29.346,20.225,27.583,20.225,27.583Z" transform="translate(-170.517 -44.923)"/><path class="f" d="M660.688,399.924s28.528,19.1,41.356,4.874c21.443-23.789-7.893-34.65-18.942-38C679.509,365.706,672.039,379.475,660.688,399.924Z" transform="translate(-195.09 -45.162)"/><circle class="m" cx="10.92" cy="10.92" r="10.92" transform="translate(756.01 218.496)"/><path class="j" d="M920.279,545.376c34.809,0,62.811,7.7,62.811,24.766s-28.26,30.921-63.068,30.921-63.069-13.856-63.069-30.921,28.518-24.766,63.327-24.766Z" transform="translate(-210.327 -59.031)"/><path class="e" d="M942.54,552.678c34.808,0,62.811,7.7,62.811,24.766s-28.26,30.921-63.069,30.921-63.068-13.856-63.068-30.921,28.518-24.766,63.327-24.766Z" transform="translate(-212.055 -59.598)"/><ellipse class="q" cx="52.883" cy="16.661" rx="52.883" ry="16.661" transform="translate(677.815 496.818)"/></g></g></svg>