<svg xmlns="http://www.w3.org/2000/svg" width="89.856" height="107.564" viewBox="0 0 89.856 107.564"><defs><style>.a{fill:#188c7c;}.a,.b,.c,.d,.e{fill-rule:evenodd;}.b{fill:#ff8200;}.c{fill:#c94b32;}.d{fill:#ff5c13;}.e{fill:#0d5263;}</style></defs><g transform="translate(0)"><path class="a" d="M593.06,188.522s-6.341-17.389-1.827-31.037a13.277,13.277,0,0,1,11.168-9.062s-5.207,20.634-2.721,25.789S593.06,188.522,593.06,188.522Z" transform="translate(-551.023 -142.247)"/><path class="b" d="M594.317,150.744q.238-.353.508-.713c10.389-13.947,30.4-7.575,33.93,6.68,1.384,5.6,2.029,9.312,5.793,11.2,7.991,5.47-2.48,20.609-9.972,14.418-3.1-2.856-6.8-2.148-12.525-1.469-14.582,1.73-27.606-14.749-18.222-29.391Q594.072,151.09,594.317,150.744Z" transform="translate(-551.023 -142.247)"/><path class="c" d="M639.018,181.8c-5.053,7.956-15.754-.347-15.754-.347,5.888-2.213,8.675-6.46,12.375-12.64C635.639,168.81,644.671,172.9,639.018,181.8Z" transform="translate(-551.023 -142.247)"/><path class="d" d="M622.178,175.1c-2.4,2.467-4.656,9.35-10.638,9.015s-3.776-4.862-3.776-4.862l3.73-1.181a13.743,13.743,0,0,0,5.355-.494c2.054-.84,5.663-2.822,5.329-2.478Z" transform="translate(-551.023 -142.247)"/><path class="e" d="M614.119,249.739c6.556-33.436-15.43-41.5-8.419-56.379,3.558-7.55,1.116-11.8,1.211-12.976.528-6.524-8.126,10.86-8.126,10.86s-22.715,16.466-7.861,22.914c14.3,6.208,22.85,37.34,23.2,35.581Z" transform="translate(-551.023 -142.247)"/><path class="a" d="M601.174,176.613c-5.651,2.946-10.853,16.834-16.076,25.727-6.967,11.864-25.463,10.453-34.075,3.624,0,0,20.636,25.677,42.351,6.129,8.24-7.418,10.638-11.059,15.031-18.046,3.5-5.571,2.827-9.756,1.33-16.081-1.191-5.031-.61-5.5-8.561-1.353Z" transform="translate(-551.023 -142.247)"/><path class="a" d="M608.056,187.355s1.009,1.058,1.262-.379c1.05-5.979-.069-10.381,1.424-10.926,2.18-.8,4.274.255,5-3.384S616,163,614.871,162.66a28.8,28.8,0,0,0-4.779-.913c-5.155.615-7.295,9.658-9.393,14.051-2.369,4.96-5.039,7.169-4.782,13.042s12.139-1.485,12.139-1.485Z" transform="translate(-551.023 -142.247)"/><path class="a" d="M606.705,178.544c7.137-.8,21.406-4.579,29.057-9.994,0,0-.752,4.717-8.678,11.392s-15.447,11.44-22.777,19.763a101.229,101.229,0,0,1-12.443,12.268S599.567,179.338,606.705,178.544Z" transform="translate(-551.023 -142.247)"/><path class="e" d="M596.261,181.679c-.155.237-2.011-3.9,3.074-8.942,2.758-2.736,2.22-6.585,3.231-8.694,3.086-6.44,12.36-1.383,12.36-1.383a3.615,3.615,0,0,1-4.387,3.725c-3.229-.354-4.206,1.985-3.183,5.069,2.451,7.394-8.837,6.769-11.1,10.225Z" transform="translate(-551.023 -142.247)"/></g></svg>