<svg xmlns="http://www.w3.org/2000/svg" width="97.944" height="78.573" viewBox="0 0 97.944 78.573"><defs><style>.a{fill:#0d5263;}.a,.b,.c,.d,.e,.g{fill-rule:evenodd;}.b{fill:#b51c48;}.c,.h{fill:#ff5c13;}.d{fill:#188c7c;}.e,.f{fill:#ff8200;}.g{fill:#e64460;}</style></defs><g transform="translate(0)"><path class="a" d="M623.83,25.94s2.39,5.65,1.147,9.465-4.735,2.4-8.429,4.292-5.253,1.5-5.253,1.5L623.83,25.94Z" transform="translate(-540.203 -22.16)"/><path class="a" d="M569.458,52.7c10.069-.738,22.679-14.4,27.926-15.72s-4.9-4.271-15.4,2.092S563.31,53.148,569.458,52.7Z" transform="translate(-540.203 -22.16)"/><path class="b" d="M591.776,51.076c7.724-.573,17.4-11.176,21.421-12.2s-3.761-3.315-11.81,1.624S587.06,51.425,591.776,51.076Z" transform="translate(-540.203 -22.16)"/><path class="c" d="M620.8,64.542c4.475-2.622,11.4-6.446,13.743-14.45.873-2.989,3.374-.949,3.374-.949s-3.645,12.587-6.227,17.911S613.585,68.773,620.8,64.542Z" transform="translate(-540.203 -22.16)"/><path class="a" d="M566.935,58.778s8.229-2.942,13.005,1.688-4.682,20.721-4.682,20.721-5.928-9.76-9.8-15.54S566.935,58.778,566.935,58.778Z" transform="translate(-540.203 -22.16)"/><path class="d" d="M603.5,36.152c-2.563-1.927-5.039-8.73.252-11.283s5.857.322,11.537-1.62,8.267-1.614,9.411,3.694c1.249,5.793-7.894,11.989-14.426,11.894C607.427,38.795,606.066,38.08,603.5,36.152Z" transform="translate(-540.203 -22.16)"/><path class="b" d="M597,84.205s2.82.882,7.933-15.006C608,59.678,593.271,55.123,584.8,51.178c-4.816-2.244-3.975,5.171-3.039,10.031,1.368,7.1,13.289,3.562,13.774,8.227C596.213,75.933,597,84.205,597,84.205Z" transform="translate(-540.203 -22.16)"/><path class="b" d="M590.615,37.137c.3-1.019-1.674-5.943.4-8.282s10.272-4.007,13.49-.125-3.8,7.427-3.8,7.427S590.318,38.155,590.615,37.137Z" transform="translate(-540.203 -22.16)"/><path class="e" d="M558.5,65.264A17.735,17.735,0,1,1,540.763,83,17.742,17.742,0,0,1,558.5,65.264Zm0,7.313A10.421,10.421,0,1,1,548.076,83,10.426,10.426,0,0,1,558.5,72.577Z" transform="translate(-540.203 -22.16)"/><path class="c" d="M616.052,65.264A17.735,17.735,0,1,1,598.318,83,17.743,17.743,0,0,1,616.052,65.264Zm0,7.313A10.421,10.421,0,1,1,605.631,83,10.426,10.426,0,0,1,616.052,72.577Z" transform="translate(-540.203 -22.16)"/><path class="c" d="M556.074,65.428a18.339,18.339,0,0,1,2.585,35.3H558.5a17.736,17.736,0,0,1-2.424-35.305Zm2.424,7.148A10.422,10.422,0,1,1,548.076,83,10.427,10.427,0,0,1,558.5,72.576Z" transform="translate(-540.203 -22.16)"/><path class="e" d="M613.628,65.428a18.339,18.339,0,0,1,2.585,35.3h-.161a17.736,17.736,0,0,1-2.424-35.305Zm2.424,7.148A10.422,10.422,0,1,1,605.63,83,10.427,10.427,0,0,1,616.052,72.576Z" transform="translate(-540.203 -22.16)"/><path class="a" d="M582.557,27.83c-6.489-4.44-18.083.457-30.3.621s-17.343,14.739-4.852,19.3c14.489,5.289,26.93-3.377,31.962-8.77S585.682,29.968,582.557,27.83Z" transform="translate(-540.203 -22.16)"/><rect class="f" width="29.03" height="5.488" transform="translate(33.196 58.976)"/><path class="d" d="M572.04,39.087c2.7-2.651,1.725-6.345,2.956-7.886s3.125.188,3.125.188,3.512-5.021,5.652-1.25-1.333,9.252-4.827,10.052S570.262,40.834,572.04,39.087Z" transform="translate(-540.203 -22.16)"/><path class="d" d="M542.313,90.115s14.954-8.853,29.355-17.217c7.459-4.332-5.831-11.267-2.047-19.134,2.787-5.793-6.083,3.07-7.5,2.461-6.59-2.837-11.276,5.329-5.754,10.253,3.678,3.281-1.406,4.78-5.261,8.433C544.838,80.853,542.313,90.115,542.313,90.115Z" transform="translate(-540.203 -22.16)"/><path class="g" d="M592.149,36.018c1.726-1.8-.658-4,.573-5.538a2.655,2.655,0,0,1,3.107-.679s4.651-3.433,6.791.338-1.333,9.252-4.827,10.052S590.423,37.815,592.149,36.018Z" transform="translate(-540.203 -22.16)"/><path class="g" d="M576.1,92.549s15.129-2.13,16.677-18.749c.551-5.921-4.825-10.488-.617-18.027C597,47.1,575.154,51.723,575.6,60.329c.36,7,6.237,11.048,6.721,15.714C582.993,82.54,576.1,92.549,576.1,92.549Z" transform="translate(-540.203 -22.16)"/><path class="a" d="M637.553,46.012c-3.309-7.405-10.088-4.927-22.677-7.894-4.653-1.1-11.019,11.495-4.432,11.584,2.989.041,4.879,1.279,6.524-.382,3.185-3.215,13.561-2.958,16.1-3.5C637.377,44.907,638.639,48.442,637.553,46.012Z" transform="translate(-540.203 -22.16)"/><circle class="h" cx="3.36" cy="3.36" r="3.36" transform="translate(91.224 22.687)"/><path class="a" d="M628.59,83.535s10.129-16.307-.738-22.179c-14.2-7.67-31.312-9.47-31.182-1.323.194,12.223,14.734,10.008,22.071,11.034C628.46,72.427,628.59,83.535,628.59,83.535Z" transform="translate(-540.203 -22.16)"/><path class="d" d="M564.308,40.363c-11.4,11.737-14.637,21.22-8.2,25.631,8.721,5.978,9.4.179,12.7-10,1.432-4.408,3.8-5.92,8.158-9.632C583.8,40.536,595.692,35.5,595.692,35.5c.828-3.462-9.321-1.856-19.107,2.767C572.292,40.3,568.3,36.252,564.308,40.363Z" transform="translate(-540.203 -22.16)"/><path class="g" d="M585.7,39.119c-12.522,10.529-12.347,26.308-4.89,28.6,10.528,3.24,7.7-2.562,11.743-12.971,2.226-5.725,3.9-9.935,8.367-12.486,4.725-2.7,12.211-2.751,14.672-4.056C619.212,36.288,596.926,29.679,585.7,39.119Z" transform="translate(-540.203 -22.16)"/><path class="a" d="M607.12,39.19c-9.032,13.642-14.032,21.083-7.6,25.494,8.721,5.978,30.229-4.883,15.874-8.368-6.177-1.5,5.14-10.774,8.482-11.833,3.876-1.229-2.784-3.992-2.784-3.992-6.021-1.325-10.371-6.746-13.976-1.3Z" transform="translate(-540.203 -22.16)"/></g></svg>