<svg xmlns="http://www.w3.org/2000/svg" width="98.943" height="101.598" viewBox="0 0 98.943 101.598"><defs><style>.a,.f{fill:#b51c48;}.b{fill:#0d5263;}.b,.c,.d,.f,.g{fill-rule:evenodd;}.c{fill:#ff8200;}.d{fill:#ff5c13;}.e{fill:#e64460;}.g{fill:#188c7c;}</style></defs><g transform="translate(0)"><rect class="a" width="48.252" height="25.523" transform="translate(24.267 68.486)"/><path class="b" d="M764.694,252.953a2.412,2.412,0,0,0-2.412-2.412h0a2.412,2.412,0,0,0-2.412,2.412v16.969a2.412,2.412,0,0,0,2.412,2.412h0a2.412,2.412,0,0,0,2.412-2.412Z" transform="translate(-693.913 -250.541)"/><path class="c" d="M743.384,299.469c27.3,0,49.472,11.8,49.472,26.335s-22.168,26.335-49.472,26.335-49.471-11.8-49.471-26.335,22.167-26.335,49.471-26.335Zm0,4.237c20.383,0,36.931,8.809,36.931,19.66s-16.548,19.659-36.931,19.659-36.93-8.809-36.93-19.659,16.548-19.66,36.93-19.66Z" transform="translate(-693.913 -250.541)"/><path class="d" d="M697.654,315.748c7.43-9.552,25.116-16.279,45.73-16.279,27.3,0,49.472,11.8,49.472,26.335,0,.179,0,.358-.011.536q-.373.129-.753.256a141.1,141.1,0,0,1-14.388,4.039,12.06,12.06,0,0,0,2.611-7.269c0-10.85-16.548-19.659-36.931-19.659-20.2,0-36.632,8.651-36.926,19.367a34.434,34.434,0,0,1-8.8-7.326Z" transform="translate(-693.913 -250.541)"/><path class="b" d="M726.146,310.463l14.463-.725,22.7,5.98s-13.508-16.281-2.859-32.569c6.353-9.716-34.781,15.155-34.306,27.314Z" transform="translate(-693.913 -250.541)"/><ellipse class="e" cx="24.194" cy="12.88" rx="24.194" ry="12.88" transform="translate(24.178 55.924)"/><path class="f" d="M718.376,317.362c1.793-6.169,11.822-10.9,23.909-10.9,7.8,0,14.745,1.969,19.171,5.024-.294,1.089-1.386,3.615-5.379,5.633-5.543,2.8-11.334-4.244-21.23-1.924-1.675.393,6.551,13.265,4.45,13.526-6.854.848-14.225-9.659-14.225-9.659s-4.252-.286-6.7-1.7Z" transform="translate(-693.913 -250.541)"/><path class="b" d="M734.734,313.354a2.413,2.413,0,0,0-3.282-.93h0a2.411,2.411,0,0,0-.93,3.282l6.392,11.447a2.412,2.412,0,0,0,3.282.93h0a2.412,2.412,0,0,0,.93-3.282l-6.392-11.448Z" transform="translate(-693.913 -250.541)"/><path class="g" d="M740.218,278.652c-26.4,8.068-22.762,37.486-5.411,44.48,0,0-13.231-22.469,8.472-28.525,25.474-7.107,21.95-29.612,20.717-32.321,0,0-4.931,10.606-23.778,16.367Z" transform="translate(-693.913 -250.541)"/><path class="g" d="M741.081,285.046c-8.889,3.447-3.251,17.7,5.382,16.007C756.715,299.044,754.487,279.848,741.081,285.046Z" transform="translate(-693.913 -250.541)"/><path class="b" d="M737.732,297.074c-14,.495-12.306-18.536-5.6-23.222,7.9-5.52,18.745,5.009,20.854,11.206,2.606,7.656-4.916,10.255-9.832,9.08-3.337-.8-4.344-3.657-5.3-2.5-1.281,1.554,1.024,5.395-.127,5.436Z" transform="translate(-693.913 -250.541)"/></g></svg>