<svg xmlns="http://www.w3.org/2000/svg" width="75.666" height="100.277" viewBox="0 0 75.666 100.277"><defs><style>.a{fill:#ff5c13;}.a,.b,.d,.f,.g,.h{fill-rule:evenodd;}.b{fill:#ff8200;}.c,.f{fill:#e64460;}.d{fill:#b51c48;}.e{fill:#fff;}.g{fill:#c94b32;}.h{fill:#0d5263;}</style></defs><g transform="translate(0)"><path class="a" d="M733.89,175.953s13.509-7.981,21.2-9.343,18.6,16.375,19.383,27.664-11.149-12.272-28.321-13.9S729.3,184.71,729.3,184.71Z" transform="translate(-699.723 -145.157)"/><path class="b" d="M707.737,196.912c9.533-13.549,30.756-30.163,45.389-51.658.21-.308,7.722-.777,3.276,14.117s-21.9,22.358-25.748,33.361-1.841,27.341,7.306,29.961c16.777,4.805,22.456,12.149,19.2,22.741,0,0-18.289-13.763-41.268-16.525s-17.358-18.91-8.15-32Z" transform="translate(-699.723 -145.157)"/><circle class="c" cx="27.151" cy="27.151" r="27.151" transform="translate(21.363 28.982)"/><path class="d" d="M735.593,177.261A27.155,27.155,0,0,1,755.724,227.4a27.155,27.155,0,0,1-20.131-50.134Z" transform="translate(-699.723 -145.157)"/><circle class="e" cx="18.223" cy="18.223" r="18.223" transform="translate(30.29 37.91)"/><path class="f" d="M745.881,174.24q1.164-.1,2.356-.1a27.154,27.154,0,0,1,7.51,53.249l-.08.023-.172.048-.106.03-.131.035-.078.021a26.949,26.949,0,0,1-4.339.773l-.175.016-.174.015-.173.014-.082.006-.128.009-.134.009-.088.005-.176.01-.078.005-.124.006-.146.006-.083,0-.133.005-.123,0-.119,0h-.057l-.125,0-.147,0h-.339q-1.191,0-2.356-.1v-8.978a18.224,18.224,0,1,0,0-36.145V174.24Z" transform="translate(-699.723 -145.157)"/><path class="d" d="M726.906,184.5a27.158,27.158,0,1,1,21.331,43.943,27.01,27.01,0,0,1-12.888-3.252,21.974,21.974,0,0,0,4.664-7.636,18.226,18.226,0,1,0-4.765-29.04,12.564,12.564,0,0,0-8.342-4.015Z" transform="translate(-699.723 -145.157)"/><path class="g" d="M754.716,188.42s-8.852,6.713-10.828,10.53a4.776,4.776,0,1,0,8.484,4.391c1.976-3.817,2.344-14.921,2.344-14.921Z" transform="translate(-699.723 -145.157)"/><path class="h" d="M743.877,198.975c.973-1.454,4.964,5.832,8.417,4.515-1.975,3.818-10.828,10.531-10.828,10.531s.353-10.636,2.22-14.668a2.17,2.17,0,0,0,.124-.254c.022-.042.044-.083.067-.124Z" transform="translate(-699.723 -145.157)"/></g></svg>