<svg xmlns="http://www.w3.org/2000/svg" width="441" height="369.177" viewBox="0 0 441 369.177"><defs><style>.a{fill:#e64460;}.a,.b,.c,.d{fill-rule:evenodd;}.b{fill:#fff;}.c,.e{fill:#1a395f;}.d{fill:#188c7c;}</style></defs><g transform="translate(-462 -2807.077)"><g transform="translate(297.139 2401.639)"><path class="a" d="M438.135,740.525c44.2-56.737,10.1-132.992,70.465-142.312,51.508-7.949,88.466,41.126,68.483,89.508-30.324,73.432-159.87,79.659-138.948,52.8Z" transform="translate(456.906 -177.181) rotate(34)"/><path class="b" d="M516.159,623.938a8.353,8.353,0,0,0-8.355-8.353H466.548a8.353,8.353,0,0,0-8.353,8.353v55.98a8.353,8.353,0,0,0,8.353,8.353H507.8a8.354,8.354,0,0,0,8.355-8.353Z" transform="translate(28.595 23.333)"/><path class="c" d="M504.757,631.2a5.582,5.582,0,0,0-5.585-5.585H467.148a5.582,5.582,0,0,0-5.585,5.585v1.646a5.583,5.583,0,0,0,5.585,5.585h32.025a5.582,5.582,0,0,0,5.585-5.585Z" transform="translate(32.908 36.176)"/><path class="c" d="M483.735,638.961a5.59,5.59,0,0,0-5.585-5.584h-11a5.586,5.586,0,0,0-5.585,5.584v1.646a5.582,5.582,0,0,0,5.585,5.585h11a5.586,5.586,0,0,0,5.585-5.585Z" transform="translate(32.908 46.112)"/><path class="c" d="M489.052,638.961a5.586,5.586,0,0,0-5.584-5.584h-4.2a5.586,5.586,0,0,0-5.585,5.584v1.646a5.582,5.582,0,0,0,5.585,5.585h4.2a5.582,5.582,0,0,0,5.584-5.585Z" transform="translate(48.425 46.112)"/><path class="d" d="M484.025,614.7a4.808,4.808,0,0,0-4.807-4.809h0a4.808,4.808,0,0,0-4.807,4.809v13.333a4.808,4.808,0,0,0,4.807,4.809h0a4.808,4.808,0,0,0,4.807-4.809Z" transform="translate(49.355 16.047)"/><path class="d" d="M473.824,614.7a4.808,4.808,0,0,0-4.809-4.809h0a4.808,4.808,0,0,0-4.807,4.809v13.333a4.808,4.808,0,0,0,4.807,4.809h0a4.809,4.809,0,0,0,4.809-4.809Z" transform="translate(36.294 16.047)"/></g><g transform="translate(103.574 2230.84)"><path class="b" d="M430.251,727.239c-2.082-61.693,60.059-97.445,22.835-134.362-31.76-31.5-82.172-16.056-92.7,27.62-15.974,66.287,70.847,135.945,69.862,106.742Z" transform="translate(0 0)"/><path class="a" d="M396.484,589.855a8,8,0,0,0-7.995-7.995h0a7.994,7.994,0,0,0-7.995,7.995v3.707a7.994,7.994,0,0,0,7.995,7.995h0a8,8,0,0,0,7.995-7.995Z" transform="translate(21.122 5.382)"/><circle class="e" cx="11.682" cy="11.682" r="11.682" transform="translate(398.447 635.577)"/><path class="a" d="M379.3,611.859c-.014-.335-.022-.671-.022-1.008a23.635,23.635,0,0,1,47.27,0c0,.337-.008.673-.022,1.008v5.56a7.861,7.861,0,0,0,7.86,7.862h0a6.017,6.017,0,0,1,6.018,6.018v.513a6.532,6.532,0,0,1-6.531,6.533h-61.92a6.535,6.535,0,0,1-6.533-6.533V631.3a6.017,6.017,0,0,1,6.018-6.018h0a7.86,7.86,0,0,0,7.86-7.862v-5.56Z" transform="translate(6.696 10.528)"/></g></g></svg>