<svg xmlns="http://www.w3.org/2000/svg" width="414.008" height="385.026" viewBox="0 0 414.008 385.026"><defs><style>.a{fill:#fff;}.a,.b,.c,.d,.e,.f,.g,.h,.j,.k,.l,.n{fill-rule:evenodd;}.b{fill:#ff8200;}.c{fill:#188c7c;}.d{fill:#b51c48;}.e,.m{fill:#1b2b41;}.f,.i{fill:#0e4f5f;}.g{fill:#751c48;}.h{fill:#cf2e21;}.j{fill:#ff5c13;}.k{fill:#e64460;}.l,.o{fill:#1a395f;}.n{fill:#2a618d;}</style></defs><g transform="translate(-245.741 -17.315)"><path class="a" d="M315.959,367.1c108.194,44.5,314.6-21.873,341-160.466S516.1-22.111,416.949,77.4,149.794,298.758,315.959,367.1Z" transform="translate(0 18.837)"/><path class="b" d="M329.073,68.277c1.192,44.163,122.664,91.036,158.462,173.845,17.747,41.052-19.842-157.5-53.041-195.139-34.31-38.9-106.311-11.649-105.42,21.295Z" transform="translate(87.648 11.088)"/><path class="c" d="M430.178,215.356c4.186-37.492-72.2-120.446-16.5-151.3,46.055-25.515,84.356,34.663,63.385,84.581-15.609,37.158-49.418,89.438-46.882,66.717Z" transform="translate(155.177 42.79)"/><path class="d" d="M286.048,83.547c-39,24.487-37.32,101.128,34.1,139.055s242.273-6.636,242.273-6.636S427.1,181.794,407.436,135.854c-18.2-42.532-58.668-91.689-121.388-52.307Z" transform="translate(15.617 54.485)"/><path class="e" d="M324,82.205s-8.591,14.7-6.283,23.987,29.775,14.8,28.843,24.524-5.829,25.214-5.829,25.214l55.922,10.779S333.619,96.32,324,82.205Z" transform="translate(75.299 68.258)"/><path class="f" d="M472.483,140.5c-31.361-13.637-225.218-47.081-206.027-11.158,9.428,17.65,25.388,34.347,48.917,46.843,26.968,14.32,68.115,16.879,108.886,14.519,67.2-3.892,89.6-32.213,48.224-50.2Z" transform="translate(20.388 100.9)"/><g transform="translate(277.262 149.929)"><path class="g" d="M271.3,108.125c3.088-6.734-4.373-17.944,8.764-22.191s22.216-2.064,21.274,10.727-15.982,15.3-25.8,21.526c-2.694,1.709,2-8.505,1.9-9.956C277.3,106.006,270.673,109.5,271.3,108.125Z" transform="translate(-250.42 -79.826)"/><path class="h" d="M326.976,109.024c3.051,2.015,21.434.839,22.308,11.423s8.895,33.4,25.39,50.083c12.673,12.814-98.52-31.763-98.52-31.763s-.373-18.317,19.15-24.881c14.932-5.019,15.633-3.373,20.25-9.71A65.258,65.258,0,0,0,322.541,92.1S323.924,107.011,326.976,109.024Z" transform="translate(-245.271 -71.265)"/><ellipse class="i" cx="61.737" cy="21.504" rx="61.737" ry="21.504" transform="translate(55.756 75.097)"/><path class="j" d="M321.936,132.774s-29.018-.753-21.719-7.99c1.079-1.071,4.323-6.453,6.529-8.027,2.583-1.841,4.079.189,4.079.189l11.111,15.828Z" transform="translate(-221.198 -46.138)"/><path class="g" d="M322.331,151.85c-9.061-7.042-32.005-66.085-46.414-50.988a13.931,13.931,0,0,0-1.332,1.644c-14.285,20.5-2.6,42.975,7.149,49.566s49.941,7.04,40.6-.222Z" transform="translate(-253.929 -64.634)"/><path class="k" d="M273.205,107.032s-5.987-10.044-.181-14.46,9.2,2.567,9.2,2.567,5.552-12.244,17.355-5.676c5.571,3.1,3.066,35.479-7.032,32.221a30.285,30.285,0,0,1-9.882-5.505c-5.183-4.241-8.048-8.922-9.461-9.147Z" transform="translate(-251.229 -76.073)"/><path class="l" d="M304.11,120.017c12.986,0,23.041.864,23.041,6.15s-10.545,9.576-23.531,9.576-23.531-4.291-23.531-9.576,11.033-6.15,24.022-6.15Z" transform="translate(-241.133 -41.897)"/><path class="l" d="M326.5,108.1c12.986,0,23.041,1.884,23.041,13.4S339,142.377,326.013,142.377s-23.531-9.355-23.531-20.876,11.033-13.4,24.022-13.4Z" transform="translate(-217.577 -54.435)"/><ellipse class="m" cx="19.73" cy="2.896" rx="19.73" ry="2.896" transform="translate(42.76 78.993)"/><ellipse class="m" cx="19.73" cy="6.312" rx="19.73" ry="6.312" transform="translate(88.711 55.567)"/><ellipse class="m" cx="19.73" cy="2.896" rx="19.73" ry="2.896" transform="translate(42.76 98.523)"/><ellipse class="m" cx="13.586" cy="3.227" rx="13.586" ry="3.227" transform="translate(96.155 91.494)"/><path class="k" d="M263.3,134.42a100.053,100.053,0,0,0,21,33.243c37.976,11.645,52.847-13.22,48.817-12.572-20.082,3.232-43.305-16.019-48.56-34.039-1.625-5.573,5.7-13.426,12.2-13.912,5.421-.408-9.763-11.54-13.518-9.012-6.8,4.578-17.23,20.63-19.938,36.292Z" transform="translate(-258.797 -65.314)"/><path class="k" d="M268.569,137.176s-10.06-15.759-2.967-25.205a75.117,75.117,0,0,1,19.177-17.835l.4,8s-6.97,14.648-9.746,19.6C269.433,132.434,268.569,137.176,268.569,137.176Z" transform="translate(-259.034 -69.122)"/><path class="g" d="M261.1,116.164A77.94,77.94,0,0,1,274.2,99.156s6.667,12.576,14.891,24.746,11.569,15.024,11.569,15.024a139.161,139.161,0,0,1-16.85,19.4,13.372,13.372,0,0,1-2.444,1.865C270.06,146.247,263.506,130.946,261.1,116.164Z" transform="translate(-261.103 -63.841)"/><path class="h" d="M297.1,88.526c3.737-3.605,7.647-10.889,23.174-3.16s7.77,22.259-6.628,27.754c-14.585,5.567-12.276,10.969-12.276,10.969s-5.528-34.351-4.27-35.563Z" transform="translate(-223.43 -81.945)"/><path class="j" d="M303.91,134.446c8.323-8.082,2.583-22.033,9.714-28.8s4.428-18.221-8.045-14.8-8.462,14.9-8.462,14.9,2.768.833-.893,5.788S298.684,139.52,303.91,134.446Z" transform="translate(-225.328 -73.233)"/><path class="b" d="M306.317,84.376C304.91,79.029,281.838,105.835,299.5,113c0,0,2.454-2.988,9.336-4.165s13.38-9.9,5.511-11.587-5.885-4.723-8.031-12.872Z" transform="translate(-227.684 -80.124)"/><path class="j" d="M302.734,116.916s-4.04,6.355,6.507,11.158c5.657,2.575,12.061.23,12.061.23a58.66,58.66,0,0,1-10.785-4.787,46.591,46.591,0,0,1-7.783-6.6Z" transform="translate(-218.112 -45.159)"/><path class="j" d="M308.017,124.016c-3.195-3.053,1.658-8.946,1.658-8.946s-7.8,1.221-7.35,4.918S311.3,127.15,308.017,124.016Z" transform="translate(-217.761 -47.101)"/><path class="j" d="M330.489,116.3s3.016,4.147-2.327,8.981c-3.96,3.585-7.641,1.6-7.641,1.6a25.126,25.126,0,0,0,9.968-10.584Z" transform="translate(-198.602 -45.811)"/></g><g transform="translate(268.981 71.587)"><g transform="translate(292.001 0)"><ellipse class="i" cx="11.889" cy="10.772" rx="11.889" ry="10.772" transform="translate(0 88.904)"/><path class="f" d="M433.031,86.216c4.992,2.083,7.18,7.448,4.881,11.973s-8.22,6.507-13.214,4.422-7.182-7.446-4.881-11.971S428.037,84.134,433.031,86.216Z" transform="translate(-378.834 0.019)"/><ellipse class="i" cx="11.889" cy="10.772" rx="11.889" ry="10.772" transform="translate(27.862 48.175)"/><path class="f" d="M411.24,130.177c8.571-7.506,7.723-41.073,1.254-64.719a2.665,2.665,0,0,0-3.322-1.836v0a1.952,1.952,0,0,0-1.323,2.421c1.9,6.831,7.834,31.275,3.172,55.188,0,0-6.831,15.122.22,8.948Z" transform="translate(-390.545 -22.992)"/><path class="f" d="M427.024,120.266c9.353-2.967,21.574-28.413,25.885-48.392a2.471,2.471,0,0,0-2.159-2.961v0a1.307,1.307,0,0,0-1.424,1.069c-1.038,5.189-5.9,26.277-19.009,43.406C430.317,113.386,419.27,122.726,427.024,120.266Z" transform="translate(-373.194 -17.321)"/><path class="f" d="M434.953,108.076c6.172-9.318-4.409-41.894-17.529-63.211a2.34,2.34,0,0,0-3.17-.778h0a2.209,2.209,0,0,0-.751,3.082c3.96,6.48,16.382,28.437,18.68,52.315C432.183,99.485,429.906,115.693,434.953,108.076Z" transform="translate(-384.87 -43.765)"/><path class="f" d="M412.308,99.455c.236-12.254,20.938-20.714,17.139-32.826A101.244,101.244,0,0,0,421.375,48.1s-3.063-5.585-1.436,3.519,3.669,18.063-5.686,32.787C409.062,92.575,412.1,110.394,412.308,99.455Z" transform="translate(-386.899 -40.99)"/></g><path class="l" d="M257.067,247.554c11.082,9.911,26.49,19.152,46.978,27.577,37.63,15.477,68.33,21.389,118.025,11.667-27.82-25.93,19.029-41.044,22.259-43.51,33.116-25.3,62.917-38.048,59.556-72.953-4.3-44.659-37.238-60.835-70.066-36.083-21.847,16.471-5.316,32.211-71.377,44.7-32.266,6.1-80.075,36.756-105.373,68.6Z" transform="translate(-257.067 39.22)"/><path class="e" d="M395.167,194.246s46.668-.242,59.6-26.114c15.127-30.249-2.973-52.42-9.675-65.866s-46.127-45.039-73.279,2.684,23.351,89.3,23.351,89.3Z" transform="translate(-144.797 -6.159)"/><path class="n" d="M388.294,178.7c7.74-11.4,11.183-6.463,24.594-9.806s35.449-28.265,27.939-53.089-55.5-51.677-70.544-8.095S380.555,190.1,388.294,178.7Z" transform="translate(-142.904 -0.857)"/><path class="e" d="M405.789,104.6s9.792,19,24.8,29.457,12.078,6.546,12.078,6.546,15.155-30.655-3.455-45.281S376.245,71.045,369.8,109.315s-4.875,39.189-4.875,39.189,26.4,21.588,38.6,6.825-.492-32.305,2.259-50.729Z" transform="translate(-143.786 -3.073)"/><path class="j" d="M420.789,174.124c-4.014-7.994-11.025-77.3-27.711-78.417s-17.222,32.656-20.252,38.009-28.911,14.677-30.877,29.586c-1.1,8.325,16.926-15,35.988-3.527,15.069,9.067,32.529,25.792,35.656,33.423C413.593,193.2,428.042,188.572,420.789,174.124Z" transform="translate(-167.831 10.845)"/><path class="j" d="M400.44,142.695s5.452-28.433-22.928-43.274-42.948-32.863-42.948-32.863-6.379,40.634,17.525,61,48.351,15.141,48.351,15.141Z" transform="translate(-176.361 -19.789)"/><path class="j" d="M414.958,118.387s-11.878-26.4-43.634-22.236-54.035-2.212-54.035-2.212,18.131,36.92,49.4,39.846,48.271-15.4,48.271-15.4Z" transform="translate(-193.719 9.014)"/><path class="n" d="M419.064,176.382c10.013-12.043,17.193-25.242,20.139-36.409,0,0,6.248,5.565,2.21,17.045l-6.578,11.907s21.97-14.476,36.255-16.592,18.787-.776,18.787-.776-10.13,3.1-17.014,9.182-10.2,15.964-31.915,31.255-84.327,47.428-93.273,35.475,12.732-62.246,12.732-62.246,5.52,18.264,14.246,20.328,32.518,5.132,44.411-9.17Z" transform="translate(-164.034 57.436)"/><path class="e" d="M394.866,170.041,420.743,132.2l21.767,4.613-17.351,25.825Z" transform="translate(-112.117 49.26)"/><path class="l" d="M406.171,146.134c-.016-.066-15.406-19.793-32.346-21.1-16.741-1.293-36.015,10.848-37.741,35.758-3.472,50.116,21.707,82.466,21.707,82.466s4.465-10.918,16.07-26.484,11.7-14.876,11.7-14.876,28.763-23.7,20.607-55.764Z" transform="translate(-174.295 41.624)"/></g><path class="d" d="M347.142,33.6c.152.244.306.492.462.747a20.618,20.618,0,0,0,16.672,9.777c6.587.3,13.949,2.407,18.262,5.879,7.613,6.125,19.971,22,23.808,29.949,2.343,3.564,1.7,9.176-1.869,13.608-3.3,4.1-8.115,5.973-11.971,5.025a23.15,23.15,0,0,1-2.386-.46c-.066.347-.146.694-.236,1.042-1.338,5.087-4.968,8.766-8.875,9.476-4.139,1.233-10.824,1.5-17.62,1.262-16.271-13.666-28.811-26.275-33.4-38.508a20.478,20.478,0,0,0,3.01-.936,37.146,37.146,0,0,1,15.849-2.628c-.318-.954-.6-1.914-.841-2.867A20.622,20.622,0,0,0,334.032,50.3c-.95-.287-1.834-.572-2.622-.864C334.689,43.47,340.211,38.038,347.142,33.6Z" transform="translate(88.619 17.13)"/><path class="f" d="M390.106,43.555a20.624,20.624,0,0,0,14.1-14.365c.73-2.721,1.445-4.957,2.323-6.127,4.469-5.961,12.447-7.543,17.8-3.527s6.072,12.114,1.6,18.077a24.756,24.756,0,0,1-5.542,4.434,20.621,20.621,0,0,0-9.135,16.877c-.1,6.747-2.056,14.431-5.493,19.013-5.989,7.988-21.688,21.225-29.609,25.47-3.533,2.536-9.2,2.134-13.756-1.278-4.208-3.156-6.213-7.951-5.349-11.9,1.063-9.954,11.956-30.549,16.423-36.505,3.353-4.473,10.161-8.257,16.635-10.167Z" transform="translate(116.875 0)"/><path class="c" d="M350.444,59.873a20.616,20.616,0,0,0,2.661-19.953c-1.047-2.614-1.816-4.832-1.816-6.3,0-7.45,5.433-13.5,12.127-13.5s12.125,6.051,12.125,13.5a24.754,24.754,0,0,1-1.773,6.872,20.633,20.633,0,0,0,2.815,18.984c3.968,5.456,7.013,12.777,7.013,18.506,0,9.985-4.617,29.993-8.409,38.141-1.305,4.149-6.084,7.229-11.772,7.229-5.259,0-9.74-2.633-11.421-6.31-5.119-8.6-8.762-31.614-8.762-39.06,0-5.591,3.178-12.7,7.21-18.114Z" transform="translate(102.552 2.955)"/><g transform="translate(475.892 87.765)"><circle class="o" cx="28.301" cy="28.301" r="28.301"/><path class="e" d="M373.21,56.518c2.185.492,3.732,1.908,3.449,3.16s-2.284,1.871-4.471,1.379-3.732-1.906-3.449-3.16S371.023,56.028,373.21,56.518Z" transform="translate(-346.547 -46.704)"/><path class="e" d="M376.176,53.635c1.916.431,3.269,1.7,3.014,2.828s-2.017,1.7-3.936,1.266-3.269-1.7-3.014-2.828S374.258,53.2,376.176,53.635Z" transform="translate(-342.861 -49.712)"/><path class="e" d="M378.8,57.433c1.917.431,3.269,1.7,3.014,2.828s-2.017,1.7-3.936,1.266-3.269-1.7-3.016-2.828S376.877,57,378.8,57.433Z" transform="translate(-340.108 -45.717)"/></g><path class="e" d="M340.863,104.778a2.973,2.973,0,0,0-.72-4.141h0a2.971,2.971,0,0,0-4.141.72c-4.282,6.084-15.122,21.49-15.122,21.49l4.861,3.421s10.84-15.406,15.122-21.49Z" transform="translate(79.038 87.076)"/><path class="j" d="M433.05,96.942c7.2,1.916,10.508,12.966,7.391,24.658s-11.489,19.628-18.685,17.71-10.508-12.968-7.391-24.66S425.854,95.023,433.05,96.942Z" transform="translate(176.141 83.458)"/><path class="d" d="M428.533,98.364c4.664,1.243,6.416,9.878,3.913,19.269s-8.32,16.007-12.984,14.763-6.416-9.876-3.913-19.267S423.869,97.122,428.533,98.364Z" transform="translate(177.42 85.097)"/><path class="j" d="M454.987,83.979A76.114,76.114,0,0,1,449.51,121.3a342.187,342.187,0,0,1-16.78,33.838c-4.5-1.141-9.972-3.856-13.278-2.349,0,0,12-11.326,11.386-23.429s-2.512-18.434-2.512-18.434,3.611,1.822,5.686,7.268c1.4,3.671,3.775,5.068,4.787,1.767C440.839,113.3,443.589,92.3,454.987,83.979Z" transform="translate(182.725 70.124)"/></g></svg>