<svg xmlns="http://www.w3.org/2000/svg" width="132.653" height="195.884" viewBox="0 0 132.653 195.884"><defs><style>.a{fill:#188c7c;}.a,.b{fill-rule:evenodd;}.b{fill:#1a395f;}</style></defs><g transform="translate(-648 -2840.761)"><g transform="translate(228.73 2283.586)"><path class="a" d="M423.811,744.276c16.924-66.638-32.3-131.647,21.267-170.393s115.286-5.22,105.89,50.65C538.258,700.1,414.741,779.994,423.811,744.278Z" transform="translate(0 0)"/><g transform="translate(446.536 596.329)"><path class="b" d="M449.73,578.944a8.259,8.259,0,0,0-10.588-5.269c-1.088.378-2.2.768-3.283,1.145a8.265,8.265,0,0,0-5.143,10.331l15.112,46.984,18.888-6.595-14.986-46.6Z" transform="translate(-430.318 -572.787)"/><path class="b" d="M515.054,573.364c-19.313,14.372-45.3,47.755-58.343,65.327a6.99,6.99,0,0,1-12.3-2.105c-4.85-15.788-12.259-39.914-12.259-39.914l10.793-7.722,10.706,26.482a165.511,165.511,0,0,1,26.157-24.5c22.548-16.677,37.041-18.91,35.244-17.573Z" transform="translate(-427.621 -573.04)"/></g></g></g></svg>