<svg xmlns="http://www.w3.org/2000/svg" width="445.152" height="383.885" viewBox="0 0 445.152 383.885"><defs><style>.a{fill:#ff8200;}.a,.b,.c,.d,.e,.f,.g,.h,.i,.j,.k{fill-rule:evenodd;}.b{fill:#1a395f;}.c{fill:#fff;}.d{fill:#188c7c;}.e{fill:#ff5c13;}.f{fill:#c94b32;}.g{fill:#1b2b41;}.h{fill:#cf2e21;}.i{fill:#2a618d;}.j{fill:#751c48;}.k{fill:#e64460;}</style></defs><g transform="translate(-647.6 -251.607)"><path class="a" d="M730.541,392.724s114.586,120.91,180.028,139.559,101.83,17.79,101.83,17.79-151.891-53.3-141.2-164.671c-38.3-82.032-58.5-28.427-58.5-28.427Z" transform="translate(80.354 85.413)"/><path class="a" d="M685.5,390.181C633.917,373.84,666.2,265.95,744.366,261.815c60.049-3.347,134.469-36.029,164,36.62,29.335,72.846-38.195,135.847-89.384,143.526C767.8,449.442,710.5,398.056,685.5,390.181Z" transform="translate(12.465)"/><path class="b" d="M664.688,385.839s51.632,75.75,225.485,75.75c0,0-46.385-17.135-73.34-55.745-7.482-22.051-91.323-.016-91.323-.016Z" transform="translate(16.555 130.044)"/><path class="c" d="M817.882,395.522C844.711,462.082,902.2,495.717,902.2,495.717S770.867,472.489,740.146,405.5C729.926,385.231,803.386,359.554,817.882,395.522Z" transform="translate(88.718 121.979)"/><path class="c" d="M735.7,486.736c95.881-32.682,21.263-85.446,51.189-139.785C826.068,275.877,969,262.489,944,394.2,931,462.913,839.849,501.9,791.81,500.32,743.772,498.942,729.2,489.1,735.7,486.736Z" transform="translate(83.937 41.065)"/><path class="d" d="M685.364,464.337c-14.766-14.569-78.161-96.275,1.969-138.21s86.627,7.481,115.372,12.994c28.745,5.709,63.4,11.616,67.727,54.142,4.331,42.329,18.9,76-33.47,89.581-52.173,13.585-123.05,9.844-151.6-18.507Z" transform="translate(0 55.982)"/><path class="a" d="M848,369.905c-4.922.591-21.263,9.45-34.257,6.891s-10.828-7.678-20.869-3.347S772.593,383.687,772,390.184c-.591,6.3,4.922,1.181,15.947-1.181s30.32,0,47.054,3.15,18.9-.2,27.17-6.891-9.45-15.947-14.176-15.357Z" transform="translate(120.48 114.582)"/><path class="e" d="M851.537,364.785c12.4,16.735-18.31-3.741-35.045,3.15-14.766,6.1-7.875,43.511-9.844,29.532-3.15-22.838,14.569-30.713,12.4-35.242-.984-1.969-1.378-14.372-13.782-10.041-8.072,2.756-14.963-37.6.591-46.464,15.357-9.056,41.739,4.331,35.635,22.838-6.1,18.7-6.694,13.585,10.041,36.226Z" transform="translate(144.307 49.613)"/><path class="f" d="M835.138,350.159s-27.563-24.413-29.926-36.817c-1.575-7.678-4.331-7.285-4.331-7.285s13.979-8.663,27.76.2,11.222,21.46,8.86,31.7c-2.363,10.435-2.363,12.207-2.363,12.207Z" transform="translate(148.499 49.078)"/><path class="a" d="M805.516,305.7c-12.8,11.813-16.538,44.3,0,45.283a105.716,105.716,0,0,1,18.31-15.75c10.631-7.088,8.269-16.341-2.363-15.357-10.828,1.181-7.482-22.051-15.947-14.175Z" transform="translate(142.289 50.819)"/><path class="a" d="M799.733,352.484c-5.513-4.331-6.891-4.725-20.082-2.559-12.994,2.166-17.129,11.025.2,14.175,17.326,2.953,10.435-3.741,34.454,11.025,24.019,14.963,38,19.1,50.007,16.341,12.01-2.559-6.3-26.185-32.288-28.548-22.838-2.166-30.123-8.663-32.289-10.435Z" transform="translate(116.965 94.005)"/><path class="g" d="M702.768,391.791c-14.963-7.088-26.973-20.279-10.632-39.77s19.688-20.869,35.438-20.279c15.751.394,38.982,24.019,32.091,44.692s-52.764,17.325-56.9,15.357Z" transform="translate(35.557 77.536)"/><path class="h" d="M808.808,445.9l-.394-4.134h-.2l-1.181-16.538L805.658,407.7a.193.193,0,0,0,.2.2c.591.2,6.694,2.953,12.6.984-8.072-4.331-15.357-25.4-15.357-25.4s-.591-6.1-1.969-25,12.207-24.216,12.207-24.216c7.481,1.378,20.869,7.088,28.941.788a71.158,71.158,0,0,1-5.71-7.285c-1.378-2.166,26.185,1.969,29.335,11.813,2.166,7.088-.984,22.838-13.979,27.563-.2,0,6.891,20.279,11.222,32.288-13.388,19.491-33.076,35.045-54.339,46.464Z" transform="translate(148.645 73.241)"/><path class="b" d="M720.476,370.458c-8.269-1.378-15.357-7.678-31.7-.2s-36.226,19.491-18.9,39.179c17.522,19.688,91.746,47.054,150.81,19.1,24.61-11.616-25-60.048-55.52-57.489-28.154,2.559-36.423.788-44.692-.591Z" transform="translate(15.092 111.47)"/><path class="i" d="M690.606,402.534c9.253-13.388,11.222-29.729,4.331-35.045-12.207-9.253-1.772-22.444,5.906-20.082,12.8,4.135,3.741-16.735,22.247-14.963,18.7,1.772,29.335,19.885,22.444,36.226s-13.388,10.435-13.191,22.444c0,3.938,0,11.813,2.56,16.144,4.922,9.253,12.8,9.844,4.528,12.4a36.237,36.237,0,0,1-33.864-6.694c-9.056-7.481-15.357-9.844-14.963-10.435Z" transform="translate(40.434 78.212)"/><path class="j" d="M747.613,314c-2.166,5.71-6.694,21.263-3.741,30.517S711.781,320.3,711.781,320.3s12.207-17.522,19.491-31.895,9.253-30.91,30.123-24.019c20.869,7.088,34.651,13.782,26.973,25s-11.025,11.616-22.641,16.735c-11.419,5.119-15.947,2.166-18.113,7.875Z" transform="translate(62.179 10.817)"/><path class="k" d="M737.585,275.692s-7.482,27.169,11.025,42.329a26.45,26.45,0,0,0,1.575,15.16,84.335,84.335,0,0,0,6.694,12.4s-37.013-36.029-38.982-37.6c-2.166-1.575-11.616,1.575-11.616,1.575Z" transform="translate(56.85 23.333)"/><path class="k" d="M735.73,275.667s-11.419-8.663-14.372-1.772c-3.15,7.285.984,10.828,1.575,13.979,1.772,9.253,3.741,19.491,13.979,25.594s19.885,1.181,29.138-16.538c9.253-17.916-10.632-43.117-30.32-21.263Z" transform="translate(70.322 15.09)"/><path class="j" d="M783.239,359.732c-5.513-16.341-7.875-25-17.128-37.014-9.057-12.01-32.682-36.62-42.329-30.91-9.45,5.71-21.657,12.4-30.713,22.838-9.253,10.435,49.023,33.47,67.727,39.77,18.507,6.3,27.957,21.657,22.444,5.316Z" transform="translate(43.091 38.127)"/><path class="k" d="M794.391,359.587c-14.963-8.86-59.261-9.45-88.793-18.7-29.729-9.253-22.641-22.051-5.709-38.392,0,0,75.8,34.651,88.2,42.526,12.206,7.875,21.263,23.429,6.3,14.569Z" transform="translate(36.467 49.297)"/></g></svg>