<svg xmlns="http://www.w3.org/2000/svg" width="599.134" height="443.008" viewBox="0 0 599.134 443.008"><defs><style>.a{fill:#ff8200;}.a,.b,.c,.d,.e,.f,.h,.i{fill-rule:evenodd;}.b{fill:#188c7c;}.c,.g{fill:#1a395f;}.d{fill:#cf2e21;}.e{fill:#fff;}.f{fill:#0e4f5f;}.h{fill:#751c48;}.i{fill:#e64460;}</style></defs><g transform="translate(-203.048 -369.979)"><path class="a" d="M527.808,811.269s120.5-225.76,120.5-322.511a120.5,120.5,0,0,0-240.994,0C407.311,585.509,527.808,811.269,527.808,811.269Z" transform="translate(153.877 1.719)"/><path class="b" d="M488.023,380.1c-11.638,17.5,15.986,56.984,15.986,56.984s-15.065-4.206-15.875,15.558,16.9,44.163,16.9,44.163-16.078-8.278-16.014,10.233,11.687,34.591,19.137,57.114c.218.658.428,1.3.628,1.945,12.074-36.4,20.23-70.312,20.23-95.485A120.218,120.218,0,0,0,488.023,380.1Z" transform="translate(273.168 19.863)"/><path class="c" d="M461.349,486.115s-18.795,4.834-22.895-10.476c-4.733-17.675,15.128-21.52,15.128-21.52l67.937-20.712s30.451-10.874,26.042,9.086c-.977,4.421,8.59,11.464,8.59,11.464s5-3.307,8.612,17.853-3.183,48.018-19.068,62.368-60.765-59.889-60.765-59.889l-23.581,11.826Z" transform="translate(200.481 97.015)"/><path class="c" d="M476.951,637.845c-2.7-25.012-10.577-93.964-17.058-112.305-17.285-48.952,17.187-30.661,17.187-30.661s48.815-57.521,61.527-37.924c4.356,6.713,6.66,14.556,7.427,23.049-21.256,57.952-49.631,118.433-69.084,157.841Z" transform="translate(227.016 131.389)"/><path class="d" d="M444.726,500.282c2.71-9.891.7-23.642,12.066-35.589,17.151-18.03,35.12-28.311,56.716-24.68,36.969,6.217,38.395,10.7,45.181,39.261,3.738,15.741,5.88,7.366.481,31.856-6.128,27.795-84.814,48.793-82.036,35.959,0,0-7.911-18.987-9.686-17.516-9.582,7.934-15.915.651-20.476-5.3,0,0-4.956-14.1-2.246-23.988Z" transform="translate(209.967 110.555)"/><path class="e" d="M444.869,436.444c-4.725,18.088,3.074,28.357,9.147,26.45,10.319-3.241,10.775,12.411,12.884,20.051,1.681,6.1,5.067,8.774,21.861-11.694,0,0-5.943-9.737-7.344-16.2s-1.19-19.463-8.4-28.04-25.052-2.406-28.147,9.438Z" transform="translate(209.201 85.607)"/><path class="e" d="M501.881,457.747c-12.857-2.611-11.56,11.208-21.312,1.451s-24.847-9.076-23.715,3.839,6.2,16.64,20.96,19.813,29.818.919,33.864-6.645.889-16.288-9.8-18.458Z" transform="translate(229.7 130.849)"/><path class="e" d="M443.151,482.058c-1.593-9.045,1.436-18.21,8.539-22.464s11.1-4.986,13.839,3.082,2.717,11.3-1.3,15.548-4.756,11.669-4.928,13.507c-1.081,11.4-11.6,16.209-16.151-9.673Z" transform="translate(208.159 136.887)"/><path class="b" d="M407.685,428.051c2.715-6.293,9.5-15.753,23.619-4.211,19.7,16.111,8.42,75.452,8.42,75.452s21.532-18.972,29.96,4.923,4.115,69.7,4.115,69.7,14.277-17.1,21.279,5.637.537,47.483,1.058,78.334A161.26,161.26,0,0,0,497.283,675c-32.938-68.088-82.191-178.943-89.6-246.943Z" transform="translate(154.45 78.549)"/><g transform="translate(306.889 478.314)"><path class="b" d="M320.173,509.528c140.288-25.222,111.8,78.845,138.543,111.919,0,0,44.454-155.846-84.522-162.051C329.461,426.776,291.239,496.046,320.173,509.528Z" transform="translate(-228.885 -293.564)"/><path class="f" d="M453.392,485.243c-21.084,7.227-84.966-32.707-84.966-32.707l-9.846,41.649s35.673,12.239,70.823,5.776,45.075-21.942,23.989-14.718Z" transform="translate(-227.683 -347.458)"/><path class="a" d="M430.411,464.235a4.712,4.712,0,0,0-2.859-6.019l-15.379-5.47a4.711,4.711,0,0,0-6.019,2.859l-14.221,39.982a4.708,4.708,0,0,0,2.859,6.017l15.379,5.472a4.713,4.713,0,0,0,6.019-2.862c3.3-9.291,10.917-30.689,14.221-39.98Z" transform="translate(-176.996 -347.557)"/><path class="f" d="M338.862,420.729c18.772-.208,35.807,17.164,64.047,27.139,12.35,4.363-6.8,24.93-6.8,24.93s-53.371,8.03-72.014-17.275c-9.375-12.725-2.3-34.606,14.766-34.794Z" transform="translate(-286.909 -396.199)"/><path class="f" d="M352.31,465.367c-6.64-18-6.407-29.235-1.443-38.468s45.088-8.858,46.377,1.413S356.521,476.775,352.31,465.367Z" transform="translate(-245.082 -396.891)"/><path class="b" d="M369.814,499.785,383.5,512.82S355,601.391,203.048,597.023c0,0,71.361-24.635,100.552-58.081s35.361-51.134,35.361-51.134Z" transform="translate(-306.889 -275.058)"/><path class="c" d="M303.193,568.323c10.56,19.038,33.317,33.5,53.927,30.9,0,0,13.111-15.549,15.073-21.449,0,0,26.368,6.257,42.749,15.171,14.135,7.691,53.266-60.621,42.251-69.031-23.96-7.814-56.429-6.47-53.2-14.844,16.311-42.264,20.453-60.132,20.453-60.132S327.256,475.4,319.056,523.912C316.367,539.826,303.193,568.323,303.193,568.323Z" transform="translate(-271.121 -352.974)"/><path class="f" d="M344.238,524.9c-.76.448,42.733,3.1,49.9-12.061,11.107-23.5,7.675-56.187,7.675-56.187S376.71,505.72,344.238,524.9Z" transform="translate(-249.674 -341.148)"/><path class="c" d="M362.222,557.061c-32.568-5.214-52.51-15.485-42.781-70.12s39.127-57.607,85.121-39.729C451.971,465.639,373.893,558.93,362.222,557.061Z" transform="translate(-291.446 -370.622)"/><ellipse class="g" cx="20.498" cy="21.06" rx="20.498" ry="21.06" transform="translate(32.283 24.337)"/><path class="b" d="M342.888,493.321c11.322-24.168,22.145-34.021,24.077-47.914,0,0-8.65-14.951.046-21.659s.917,16.592,16.918,15.465c16.951-1.193,21.109-13,21.109-13s6.164,18.9-4.28,28.937-16.966.327-18.071,17.083,9.61,34.51,9.61,34.51-60.735,10.75-49.41-13.421Z" transform="translate(-253.885 -393.432)"/><path class="c" d="M414.618,441.663s-64.949,3.928-65.45-3.819c-.691-10.707.182-16.931,10.6-21.914s32.887-3.462,33.191,11.836c.165,8.339,20.134,2.783,21.661,13.9Z" transform="translate(-242.379 -407.454)"/><path class="f" d="M338.911,544.4c4.477-20.952,8.053-46.6,24.738-50.17,25.326-5.422,48.314-12.216,73.379-43.71,14.67-18.43,25.082-39.484,25.082-39.484s6.731,32.317-7.227,58.3-40.93,47.579-62.211,70.725c-16.452,17.891-62.279,44.2-53.761,4.335Z" transform="translate(-259.424 -411.041)"/><path class="b" d="M412.275,461.891a3.149,3.149,0,0,0-1.945-4.006l-7.736-2.674a3.149,3.149,0,0,0-4.006,1.947h0a3.147,3.147,0,0,0,1.947,4.006l7.734,2.677a3.151,3.151,0,0,0,4.006-1.947v0Z" transform="translate(-166.646 -343.627)"/><path class="b" d="M408.945,464.6A3.147,3.147,0,0,0,407,460.6l-2.5-.864a3.151,3.151,0,0,0-4.006,1.947v0a3.151,3.151,0,0,0,1.947,4.006c.81.279,1.687.582,2.5.864a3.148,3.148,0,0,0,4.006-1.947l0,0Z" transform="translate(-163.722 -336.696)"/><path class="b" d="M403.123,462.374a2.952,2.952,0,0,0-1.826-3.755h0a2.95,2.95,0,0,0-3.753,1.826l-.129.375a2.949,2.949,0,0,0,1.823,3.753h0a2.953,2.953,0,0,0,3.755-1.823l.129-.377Z" transform="translate(-168.426 -338.387)"/></g><path class="h" d="M514.248,545.334c-.241-1.441.638-8.937.405-10.489-.661-4.409-2.96-.955-3.56-4.725-5.191-32.664-8.126-42.426-10.7-48.352-8.438-19.441-17.045-7.714-23.994-15.536s-2.684-37.868,10.451-44.812c12.132-6.414,28.167-6.045,37.217,7.718,9.443,14.363-11,28.129-1.342,35.331a36.478,36.478,0,0,0,15.84,6.478c-6.108,23.7-14.33,48.192-24.32,74.386Z" transform="translate(254.685 77.02)"/><path class="d" d="M529.915,476.987c-6.964-1.165-17.84-6.733-21.9-9.481-9.841-6.663-32.294-27.643-30-45.04,0,0,8.3-7.837,22.421-5.016s17.3,9.747,19.792,16.511c1.481,4.019,9.266,16.812,13.586,27.45q-1.747,7.6-3.9,15.576Z" transform="translate(261.974 76.154)"/><path class="i" d="M485.814,420.009c-15.034,11.238-17.521,31.269-7.934,44.138,0,0,17.886-.514,26.772-12.188s6.09-17.643-1.633-17.554-9.139-20.423-17.2-14.4Z" transform="translate(253.306 79.315)"/><path class="i" d="M502.668,500.813c3.816-10.053,7.458-20.086,10.831-29.967-7.182-7.422-17.3-1.785-20.783-21.745-1.765-10.127-15.627,12.5-11.211,21s17.493,9.213,20.2,25.642q.429,2.61.965,5.067Z" transform="translate(266.242 121.67)"/><path class="f" d="M509.428,468.041a22.676,22.676,0,0,1-18.223-22.464c0-12.6,9.942-22.831,22.188-22.831a21.62,21.62,0,0,1,5.184.628,320.253,320.253,0,0,1-9.149,44.667Z" transform="translate(282.429 85.208)"/><path class="d" d="M473.674,443.453s12.451-.732,5.959,9.314c-6.475,10.015,6.868,12.626,6.868,12.626s-1.051-19.641-.942-30.58c.185-18.309-41.132-21.393-44.146-3.738-1.876,11.005,6.414,13.586,6.445,13.429,1.975-10.289,6.769-9.073,12.059-9.716,15.791-1.922,13.758,8.666,13.758,8.666Z" transform="translate(205.707 79.984)"/></g></svg>