<svg xmlns="http://www.w3.org/2000/svg" width="30" height="30" viewBox="0 0 30 30"><defs><style>.a{opacity:0.8;}.b{fill:#fff;}</style></defs><g class="a"><path class="b" d="M24.375,0H5.625A5.625,5.625,0,0,0,0,5.625v18.75A5.625,5.625,0,0,0,5.625,30h18.75A5.625,5.625,0,0,0,30,24.375V5.625A5.625,5.625,0,0,0,24.375,0ZM22.462,11.633q.011.239.011.478A10.5,10.5,0,0,1,6.306,20.959a7.592,7.592,0,0,0,.881.052,7.411,7.411,0,0,0,4.586-1.581,3.7,3.7,0,0,1-3.45-2.565A3.723,3.723,0,0,0,9.992,16.8a3.7,3.7,0,0,1-2.963-3.621v-.047A3.687,3.687,0,0,0,8.7,13.6,3.7,3.7,0,0,1,7.558,8.668a10.481,10.481,0,0,0,7.612,3.859,3.7,3.7,0,0,1,6.294-3.367,7.443,7.443,0,0,0,2.346-.9,3.7,3.7,0,0,1-1.624,2.044,7.386,7.386,0,0,0,2.121-.581A7.465,7.465,0,0,1,22.462,11.633Z"/></g></svg>